%TF.GenerationSoftware,KiCad,Pcbnew,(5.1.9-0-10_14)*%
%TF.CreationDate,2021-06-06T22:43:36+01:00*%
%TF.ProjectId,gu10-12v-lamp,67753130-2d31-4327-962d-6c616d702e6b,rev?*%
%TF.SameCoordinates,Original*%
%TF.FileFunction,Paste,Top*%
%TF.FilePolarity,Positive*%
%FSLAX46Y46*%
G04 Gerber Fmt 4.6, Leading zero omitted, Abs format (unit mm)*
G04 Created by KiCad (PCBNEW (5.1.9-0-10_14)) date 2021-06-06 22:43:36*
%MOMM*%
%LPD*%
G01*
G04 APERTURE LIST*
%ADD10R,2.200000X1.250000*%
%ADD11R,2.200000X2.200000*%
%ADD12R,1.250000X2.200000*%
G04 APERTURE END LIST*
D10*
%TO.C,D13*%
X139800000Y-96875000D03*
D11*
X139800000Y-94600000D03*
%TD*%
D10*
%TO.C,D12*%
X139800000Y-106275000D03*
D11*
X139800000Y-104000000D03*
%TD*%
D10*
%TO.C,D11*%
X135800000Y-98925000D03*
D11*
X135800000Y-101200000D03*
%TD*%
D12*
%TO.C,D10*%
X148725000Y-105000000D03*
D11*
X151000000Y-105000000D03*
%TD*%
D10*
%TO.C,D9*%
X160200000Y-103400000D03*
D11*
X160200000Y-105675000D03*
%TD*%
D12*
%TO.C,D8*%
X151375000Y-95100000D03*
D11*
X149100000Y-95100000D03*
%TD*%
D12*
%TO.C,D7*%
X146675000Y-109100000D03*
D11*
X144400000Y-109100000D03*
%TD*%
D10*
%TO.C,D6*%
X160200000Y-94025000D03*
D11*
X160200000Y-96300000D03*
%TD*%
D12*
%TO.C,D5*%
X153125000Y-90900000D03*
D11*
X155400000Y-90900000D03*
%TD*%
D12*
%TO.C,D4*%
X156075000Y-109100000D03*
D11*
X153800000Y-109100000D03*
%TD*%
D10*
%TO.C,D3*%
X164200000Y-101375000D03*
D11*
X164200000Y-99100000D03*
%TD*%
D12*
%TO.C,D2*%
X143825000Y-90900000D03*
D11*
X146100000Y-90900000D03*
%TD*%
%TO.C,R4*%
G36*
G01*
X130950000Y-93775000D02*
X130950000Y-96625000D01*
G75*
G02*
X130700000Y-96875000I-250000J0D01*
G01*
X129975000Y-96875000D01*
G75*
G02*
X129725000Y-96625000I0J250000D01*
G01*
X129725000Y-93775000D01*
G75*
G02*
X129975000Y-93525000I250000J0D01*
G01*
X130700000Y-93525000D01*
G75*
G02*
X130950000Y-93775000I0J-250000D01*
G01*
G37*
G36*
G01*
X136875000Y-93775000D02*
X136875000Y-96625000D01*
G75*
G02*
X136625000Y-96875000I-250000J0D01*
G01*
X135900000Y-96875000D01*
G75*
G02*
X135650000Y-96625000I0J250000D01*
G01*
X135650000Y-93775000D01*
G75*
G02*
X135900000Y-93525000I250000J0D01*
G01*
X136625000Y-93525000D01*
G75*
G02*
X136875000Y-93775000I0J-250000D01*
G01*
G37*
%TD*%
%TO.C,R3*%
G36*
G01*
X153475000Y-117950000D02*
X156325000Y-117950000D01*
G75*
G02*
X156575000Y-118200000I0J-250000D01*
G01*
X156575000Y-118925000D01*
G75*
G02*
X156325000Y-119175000I-250000J0D01*
G01*
X153475000Y-119175000D01*
G75*
G02*
X153225000Y-118925000I0J250000D01*
G01*
X153225000Y-118200000D01*
G75*
G02*
X153475000Y-117950000I250000J0D01*
G01*
G37*
G36*
G01*
X153475000Y-112025000D02*
X156325000Y-112025000D01*
G75*
G02*
X156575000Y-112275000I0J-250000D01*
G01*
X156575000Y-113000000D01*
G75*
G02*
X156325000Y-113250000I-250000J0D01*
G01*
X153475000Y-113250000D01*
G75*
G02*
X153225000Y-113000000I0J250000D01*
G01*
X153225000Y-112275000D01*
G75*
G02*
X153475000Y-112025000I250000J0D01*
G01*
G37*
%TD*%
%TO.C,R2*%
G36*
G01*
X168850000Y-106525000D02*
X168850000Y-103675000D01*
G75*
G02*
X169100000Y-103425000I250000J0D01*
G01*
X169825000Y-103425000D01*
G75*
G02*
X170075000Y-103675000I0J-250000D01*
G01*
X170075000Y-106525000D01*
G75*
G02*
X169825000Y-106775000I-250000J0D01*
G01*
X169100000Y-106775000D01*
G75*
G02*
X168850000Y-106525000I0J250000D01*
G01*
G37*
G36*
G01*
X162925000Y-106525000D02*
X162925000Y-103675000D01*
G75*
G02*
X163175000Y-103425000I250000J0D01*
G01*
X163900000Y-103425000D01*
G75*
G02*
X164150000Y-103675000I0J-250000D01*
G01*
X164150000Y-106525000D01*
G75*
G02*
X163900000Y-106775000I-250000J0D01*
G01*
X163175000Y-106775000D01*
G75*
G02*
X162925000Y-106525000I0J250000D01*
G01*
G37*
%TD*%
%TO.C,R1*%
G36*
G01*
X146425000Y-82050000D02*
X143575000Y-82050000D01*
G75*
G02*
X143325000Y-81800000I0J250000D01*
G01*
X143325000Y-81075000D01*
G75*
G02*
X143575000Y-80825000I250000J0D01*
G01*
X146425000Y-80825000D01*
G75*
G02*
X146675000Y-81075000I0J-250000D01*
G01*
X146675000Y-81800000D01*
G75*
G02*
X146425000Y-82050000I-250000J0D01*
G01*
G37*
G36*
G01*
X146425000Y-87975000D02*
X143575000Y-87975000D01*
G75*
G02*
X143325000Y-87725000I0J250000D01*
G01*
X143325000Y-87000000D01*
G75*
G02*
X143575000Y-86750000I250000J0D01*
G01*
X146425000Y-86750000D01*
G75*
G02*
X146675000Y-87000000I0J-250000D01*
G01*
X146675000Y-87725000D01*
G75*
G02*
X146425000Y-87975000I-250000J0D01*
G01*
G37*
%TD*%
M02*
