M48
; DRILL file {KiCad (5.1.9-0-10_14)} date Sunday, June 06, 2021 at 10:43:37 PM
; FORMAT={-:-/ absolute / inch / decimal}
; #@! TF.CreationDate,2021-06-06T22:43:37+01:00
; #@! TF.GenerationSoftware,Kicad,Pcbnew,(5.1.9-0-10_14)
; #@! TF.FileFunction,Plated,1,2,PTH
FMAT,2
INCH
T1C0.0157
T2C0.0197
T3C0.1260
%
G90
G05
T1
X5.1142Y-3.8819
X5.1142Y-3.9528
X5.1142Y-4.0236
X5.1339Y-3.9173
X5.1339Y-3.9882
X5.1535Y-3.8819
X5.1535Y-3.9528
X5.1535Y-4.0236
X5.1732Y-3.9173
X5.1732Y-3.9882
X5.1929Y-3.8819
X5.1929Y-3.9528
X5.1929Y-4.0236
X5.4331Y-4.2559
X5.4331Y-4.2953
X5.4331Y-4.3346
X5.4449Y-3.5551
X5.4449Y-3.5945
X5.4449Y-3.6339
X5.4685Y-4.2756
X5.4685Y-4.315
X5.4803Y-3.5748
X5.4803Y-3.6142
X5.5039Y-4.2559
X5.5039Y-4.2953
X5.5039Y-4.3346
X5.5157Y-3.5551
X5.5157Y-3.5945
X5.5157Y-3.6339
X5.5394Y-4.2756
X5.5394Y-4.315
X5.5512Y-3.5748
X5.5512Y-3.6142
X5.5748Y-4.2559
X5.5748Y-4.2953
X5.5748Y-4.3346
X5.5866Y-3.5551
X5.5866Y-3.5945
X5.5866Y-3.6339
X5.6299Y-3.6929
X5.6299Y-3.7323
X5.6299Y-3.7717
X5.6654Y-3.7126
X5.6654Y-3.752
X5.7008Y-3.6929
X5.7008Y-3.7323
X5.7008Y-3.7717
X5.7362Y-3.7126
X5.7362Y-3.752
X5.7717Y-3.6929
X5.7717Y-3.7323
X5.7717Y-3.7717
X5.8228Y-4.6063
X5.8228Y-4.6457
X5.8228Y-4.685
X5.8346Y-3.1929
X5.8346Y-3.2323
X5.8346Y-3.2717
X5.8583Y-4.626
X5.8583Y-4.6654
X5.8701Y-3.2126
X5.8701Y-3.252
X5.8937Y-4.6063
X5.8937Y-4.6457
X5.8937Y-4.685
X5.9055Y-3.1929
X5.9055Y-3.2323
X5.9055Y-3.2717
X5.9291Y-4.626
X5.9291Y-4.6654
X5.9409Y-3.2126
X5.9409Y-3.252
X5.9646Y-4.6063
X5.9646Y-4.6457
X5.9646Y-4.685
X5.9764Y-3.1929
X5.9764Y-3.2323
X5.9764Y-3.2717
X6.0394Y-4.1024
X6.0394Y-4.1417
X6.0394Y-4.1811
X6.0654Y-3.4839
X6.0748Y-4.122
X6.0748Y-4.1614
X6.1047Y-3.4839
X6.1102Y-4.1024
X6.1102Y-4.1417
X6.1102Y-4.1811
X6.1441Y-3.4839
X6.1457Y-4.122
X6.1457Y-4.1614
X6.1811Y-4.1024
X6.1811Y-4.1417
X6.1811Y-4.1811
X6.1913Y-3.3531
X6.1913Y-3.3925
X6.1913Y-3.4319
X6.2268Y-3.3728
X6.2268Y-3.4122
X6.2362Y-3.5433
X6.2362Y-3.5827
X6.2362Y-3.622
X6.2362Y-4.2559
X6.2362Y-4.2953
X6.2362Y-4.3346
X6.2717Y-3.563
X6.2717Y-3.6024
X6.2717Y-4.2756
X6.2717Y-4.315
X6.3071Y-3.5433
X6.3071Y-3.5827
X6.3071Y-3.622
X6.3071Y-4.2559
X6.3071Y-4.2953
X6.3071Y-4.3346
X6.3425Y-3.563
X6.3425Y-3.6024
X6.3425Y-4.2756
X6.3425Y-4.315
X6.378Y-3.5433
X6.378Y-3.5827
X6.378Y-3.622
X6.378Y-4.2559
X6.378Y-4.2953
X6.378Y-4.3346
X6.6122Y-3.8661
X6.6122Y-3.937
X6.6122Y-4.0079
X6.6319Y-3.9016
X6.6319Y-3.9724
X6.6516Y-3.8661
X6.6516Y-3.937
X6.6516Y-4.0079
X6.6713Y-3.9016
X6.6713Y-3.9724
X6.6909Y-3.8661
X6.6909Y-3.937
X6.6909Y-4.0079
T2
X5.6142Y-3.937
X5.6418Y-3.8702
X5.6418Y-4.0038
X5.7087Y-3.8425
X5.7087Y-4.0315
X5.7755Y-3.8702
X5.7755Y-4.0038
X5.8031Y-3.937
X6.0079Y-3.937
X6.0355Y-3.8702
X6.0355Y-4.0038
X6.1024Y-3.8425
X6.1024Y-4.0315
X6.1692Y-3.8702
X6.1692Y-4.0038
X6.1969Y-3.937
T3
X5.7087Y-3.937
X6.1024Y-3.937
T0
M30
