%TF.GenerationSoftware,KiCad,Pcbnew,(5.1.9-0-10_14)*%
%TF.CreationDate,2021-06-06T22:43:36+01:00*%
%TF.ProjectId,gu10-12v-lamp,67753130-2d31-4327-962d-6c616d702e6b,rev?*%
%TF.SameCoordinates,Original*%
%TF.FileFunction,Legend,Top*%
%TF.FilePolarity,Positive*%
%FSLAX46Y46*%
G04 Gerber Fmt 4.6, Leading zero omitted, Abs format (unit mm)*
G04 Created by KiCad (PCBNEW (5.1.9-0-10_14)) date 2021-06-06 22:43:36*
%MOMM*%
%LPD*%
G01*
G04 APERTURE LIST*
%ADD10C,0.120000*%
%ADD11C,0.150000*%
G04 APERTURE END LIST*
D10*
%TO.C,D13*%
X141400000Y-96900000D02*
X141400000Y-93300000D01*
X138200000Y-96900000D02*
X138200000Y-93300000D01*
X141400000Y-93300000D02*
X138200000Y-93300000D01*
%TO.C,D12*%
X141400000Y-106300000D02*
X141400000Y-102700000D01*
X138200000Y-106300000D02*
X138200000Y-102700000D01*
X141400000Y-102700000D02*
X138200000Y-102700000D01*
%TO.C,D11*%
X134200000Y-98900000D02*
X134200000Y-102500000D01*
X137400000Y-98900000D02*
X137400000Y-102500000D01*
X134200000Y-102500000D02*
X137400000Y-102500000D01*
%TO.C,D10*%
X148700000Y-106600000D02*
X152300000Y-106600000D01*
X148700000Y-103400000D02*
X152300000Y-103400000D01*
X152300000Y-106600000D02*
X152300000Y-103400000D01*
%TO.C,D9*%
X158600000Y-103375000D02*
X158600000Y-106975000D01*
X161800000Y-103375000D02*
X161800000Y-106975000D01*
X158600000Y-106975000D02*
X161800000Y-106975000D01*
%TO.C,D8*%
X151400000Y-93500000D02*
X147800000Y-93500000D01*
X151400000Y-96700000D02*
X147800000Y-96700000D01*
X147800000Y-93500000D02*
X147800000Y-96700000D01*
%TO.C,D7*%
X146700000Y-107500000D02*
X143100000Y-107500000D01*
X146700000Y-110700000D02*
X143100000Y-110700000D01*
X143100000Y-107500000D02*
X143100000Y-110700000D01*
%TO.C,D6*%
X158600000Y-94000000D02*
X158600000Y-97600000D01*
X161800000Y-94000000D02*
X161800000Y-97600000D01*
X158600000Y-97600000D02*
X161800000Y-97600000D01*
%TO.C,D5*%
X153100000Y-92500000D02*
X156700000Y-92500000D01*
X153100000Y-89300000D02*
X156700000Y-89300000D01*
X156700000Y-92500000D02*
X156700000Y-89300000D01*
%TO.C,D4*%
X156100000Y-107500000D02*
X152500000Y-107500000D01*
X156100000Y-110700000D02*
X152500000Y-110700000D01*
X152500000Y-107500000D02*
X152500000Y-110700000D01*
%TO.C,D3*%
X165800000Y-101400000D02*
X165800000Y-97800000D01*
X162600000Y-101400000D02*
X162600000Y-97800000D01*
X165800000Y-97800000D02*
X162600000Y-97800000D01*
%TO.C,D2*%
X143800000Y-92500000D02*
X147400000Y-92500000D01*
X143800000Y-89300000D02*
X147400000Y-89300000D01*
X147400000Y-92500000D02*
X147400000Y-89300000D01*
%TO.C,R4*%
X135477064Y-96910000D02*
X131122936Y-96910000D01*
X135477064Y-93490000D02*
X131122936Y-93490000D01*
%TO.C,R3*%
X156610000Y-113422936D02*
X156610000Y-117777064D01*
X153190000Y-113422936D02*
X153190000Y-117777064D01*
%TO.C,R2*%
X164322936Y-103390000D02*
X168677064Y-103390000D01*
X164322936Y-106810000D02*
X168677064Y-106810000D01*
%TO.C,R1*%
X143290000Y-86577064D02*
X143290000Y-82222936D01*
X146710000Y-86577064D02*
X146710000Y-82222936D01*
%TO.C,D13*%
D11*
X140352380Y-100714285D02*
X139352380Y-100714285D01*
X139352380Y-100476190D01*
X139400000Y-100333333D01*
X139495238Y-100238095D01*
X139590476Y-100190476D01*
X139780952Y-100142857D01*
X139923809Y-100142857D01*
X140114285Y-100190476D01*
X140209523Y-100238095D01*
X140304761Y-100333333D01*
X140352380Y-100476190D01*
X140352380Y-100714285D01*
X140352380Y-99190476D02*
X140352380Y-99761904D01*
X140352380Y-99476190D02*
X139352380Y-99476190D01*
X139495238Y-99571428D01*
X139590476Y-99666666D01*
X139638095Y-99761904D01*
X139352380Y-98857142D02*
X139352380Y-98238095D01*
X139733333Y-98571428D01*
X139733333Y-98428571D01*
X139780952Y-98333333D01*
X139828571Y-98285714D01*
X139923809Y-98238095D01*
X140161904Y-98238095D01*
X140257142Y-98285714D01*
X140304761Y-98333333D01*
X140352380Y-98428571D01*
X140352380Y-98714285D01*
X140304761Y-98809523D01*
X140257142Y-98857142D01*
%TO.C,D12*%
X142802380Y-106114285D02*
X141802380Y-106114285D01*
X141802380Y-105876190D01*
X141850000Y-105733333D01*
X141945238Y-105638095D01*
X142040476Y-105590476D01*
X142230952Y-105542857D01*
X142373809Y-105542857D01*
X142564285Y-105590476D01*
X142659523Y-105638095D01*
X142754761Y-105733333D01*
X142802380Y-105876190D01*
X142802380Y-106114285D01*
X142802380Y-104590476D02*
X142802380Y-105161904D01*
X142802380Y-104876190D02*
X141802380Y-104876190D01*
X141945238Y-104971428D01*
X142040476Y-105066666D01*
X142088095Y-105161904D01*
X141897619Y-104209523D02*
X141850000Y-104161904D01*
X141802380Y-104066666D01*
X141802380Y-103828571D01*
X141850000Y-103733333D01*
X141897619Y-103685714D01*
X141992857Y-103638095D01*
X142088095Y-103638095D01*
X142230952Y-103685714D01*
X142802380Y-104257142D01*
X142802380Y-103638095D01*
%TO.C,D11*%
X136302380Y-105564285D02*
X135302380Y-105564285D01*
X135302380Y-105326190D01*
X135350000Y-105183333D01*
X135445238Y-105088095D01*
X135540476Y-105040476D01*
X135730952Y-104992857D01*
X135873809Y-104992857D01*
X136064285Y-105040476D01*
X136159523Y-105088095D01*
X136254761Y-105183333D01*
X136302380Y-105326190D01*
X136302380Y-105564285D01*
X136302380Y-104040476D02*
X136302380Y-104611904D01*
X136302380Y-104326190D02*
X135302380Y-104326190D01*
X135445238Y-104421428D01*
X135540476Y-104516666D01*
X135588095Y-104611904D01*
X136302380Y-103088095D02*
X136302380Y-103659523D01*
X136302380Y-103373809D02*
X135302380Y-103373809D01*
X135445238Y-103469047D01*
X135540476Y-103564285D01*
X135588095Y-103659523D01*
%TO.C,D10*%
X148935714Y-108002380D02*
X148935714Y-107002380D01*
X149173809Y-107002380D01*
X149316666Y-107050000D01*
X149411904Y-107145238D01*
X149459523Y-107240476D01*
X149507142Y-107430952D01*
X149507142Y-107573809D01*
X149459523Y-107764285D01*
X149411904Y-107859523D01*
X149316666Y-107954761D01*
X149173809Y-108002380D01*
X148935714Y-108002380D01*
X150459523Y-108002380D02*
X149888095Y-108002380D01*
X150173809Y-108002380D02*
X150173809Y-107002380D01*
X150078571Y-107145238D01*
X149983333Y-107240476D01*
X149888095Y-107288095D01*
X151078571Y-107002380D02*
X151173809Y-107002380D01*
X151269047Y-107050000D01*
X151316666Y-107097619D01*
X151364285Y-107192857D01*
X151411904Y-107383333D01*
X151411904Y-107621428D01*
X151364285Y-107811904D01*
X151316666Y-107907142D01*
X151269047Y-107954761D01*
X151173809Y-108002380D01*
X151078571Y-108002380D01*
X150983333Y-107954761D01*
X150935714Y-107907142D01*
X150888095Y-107811904D01*
X150840476Y-107621428D01*
X150840476Y-107383333D01*
X150888095Y-107192857D01*
X150935714Y-107097619D01*
X150983333Y-107050000D01*
X151078571Y-107002380D01*
%TO.C,D9*%
X160752380Y-102288095D02*
X159752380Y-102288095D01*
X159752380Y-102050000D01*
X159800000Y-101907142D01*
X159895238Y-101811904D01*
X159990476Y-101764285D01*
X160180952Y-101716666D01*
X160323809Y-101716666D01*
X160514285Y-101764285D01*
X160609523Y-101811904D01*
X160704761Y-101907142D01*
X160752380Y-102050000D01*
X160752380Y-102288095D01*
X160752380Y-101240476D02*
X160752380Y-101050000D01*
X160704761Y-100954761D01*
X160657142Y-100907142D01*
X160514285Y-100811904D01*
X160323809Y-100764285D01*
X159942857Y-100764285D01*
X159847619Y-100811904D01*
X159800000Y-100859523D01*
X159752380Y-100954761D01*
X159752380Y-101145238D01*
X159800000Y-101240476D01*
X159847619Y-101288095D01*
X159942857Y-101335714D01*
X160180952Y-101335714D01*
X160276190Y-101288095D01*
X160323809Y-101240476D01*
X160371428Y-101145238D01*
X160371428Y-100954761D01*
X160323809Y-100859523D01*
X160276190Y-100811904D01*
X160180952Y-100764285D01*
%TO.C,D8*%
X149261904Y-93052380D02*
X149261904Y-92052380D01*
X149500000Y-92052380D01*
X149642857Y-92100000D01*
X149738095Y-92195238D01*
X149785714Y-92290476D01*
X149833333Y-92480952D01*
X149833333Y-92623809D01*
X149785714Y-92814285D01*
X149738095Y-92909523D01*
X149642857Y-93004761D01*
X149500000Y-93052380D01*
X149261904Y-93052380D01*
X150404761Y-92480952D02*
X150309523Y-92433333D01*
X150261904Y-92385714D01*
X150214285Y-92290476D01*
X150214285Y-92242857D01*
X150261904Y-92147619D01*
X150309523Y-92100000D01*
X150404761Y-92052380D01*
X150595238Y-92052380D01*
X150690476Y-92100000D01*
X150738095Y-92147619D01*
X150785714Y-92242857D01*
X150785714Y-92290476D01*
X150738095Y-92385714D01*
X150690476Y-92433333D01*
X150595238Y-92480952D01*
X150404761Y-92480952D01*
X150309523Y-92528571D01*
X150261904Y-92576190D01*
X150214285Y-92671428D01*
X150214285Y-92861904D01*
X150261904Y-92957142D01*
X150309523Y-93004761D01*
X150404761Y-93052380D01*
X150595238Y-93052380D01*
X150690476Y-93004761D01*
X150738095Y-92957142D01*
X150785714Y-92861904D01*
X150785714Y-92671428D01*
X150738095Y-92576190D01*
X150690476Y-92528571D01*
X150595238Y-92480952D01*
%TO.C,D7*%
X144561904Y-107152380D02*
X144561904Y-106152380D01*
X144800000Y-106152380D01*
X144942857Y-106200000D01*
X145038095Y-106295238D01*
X145085714Y-106390476D01*
X145133333Y-106580952D01*
X145133333Y-106723809D01*
X145085714Y-106914285D01*
X145038095Y-107009523D01*
X144942857Y-107104761D01*
X144800000Y-107152380D01*
X144561904Y-107152380D01*
X145466666Y-106152380D02*
X146133333Y-106152380D01*
X145704761Y-107152380D01*
%TO.C,D6*%
X158152380Y-96138095D02*
X157152380Y-96138095D01*
X157152380Y-95900000D01*
X157200000Y-95757142D01*
X157295238Y-95661904D01*
X157390476Y-95614285D01*
X157580952Y-95566666D01*
X157723809Y-95566666D01*
X157914285Y-95614285D01*
X158009523Y-95661904D01*
X158104761Y-95757142D01*
X158152380Y-95900000D01*
X158152380Y-96138095D01*
X157152380Y-94709523D02*
X157152380Y-94900000D01*
X157200000Y-94995238D01*
X157247619Y-95042857D01*
X157390476Y-95138095D01*
X157580952Y-95185714D01*
X157961904Y-95185714D01*
X158057142Y-95138095D01*
X158104761Y-95090476D01*
X158152380Y-94995238D01*
X158152380Y-94804761D01*
X158104761Y-94709523D01*
X158057142Y-94661904D01*
X157961904Y-94614285D01*
X157723809Y-94614285D01*
X157628571Y-94661904D01*
X157580952Y-94709523D01*
X157533333Y-94804761D01*
X157533333Y-94995238D01*
X157580952Y-95090476D01*
X157628571Y-95138095D01*
X157723809Y-95185714D01*
%TO.C,D5*%
X153761904Y-93902380D02*
X153761904Y-92902380D01*
X154000000Y-92902380D01*
X154142857Y-92950000D01*
X154238095Y-93045238D01*
X154285714Y-93140476D01*
X154333333Y-93330952D01*
X154333333Y-93473809D01*
X154285714Y-93664285D01*
X154238095Y-93759523D01*
X154142857Y-93854761D01*
X154000000Y-93902380D01*
X153761904Y-93902380D01*
X155238095Y-92902380D02*
X154761904Y-92902380D01*
X154714285Y-93378571D01*
X154761904Y-93330952D01*
X154857142Y-93283333D01*
X155095238Y-93283333D01*
X155190476Y-93330952D01*
X155238095Y-93378571D01*
X155285714Y-93473809D01*
X155285714Y-93711904D01*
X155238095Y-93807142D01*
X155190476Y-93854761D01*
X155095238Y-93902380D01*
X154857142Y-93902380D01*
X154761904Y-93854761D01*
X154714285Y-93807142D01*
%TO.C,D4*%
X150661904Y-112052380D02*
X150661904Y-111052380D01*
X150900000Y-111052380D01*
X151042857Y-111100000D01*
X151138095Y-111195238D01*
X151185714Y-111290476D01*
X151233333Y-111480952D01*
X151233333Y-111623809D01*
X151185714Y-111814285D01*
X151138095Y-111909523D01*
X151042857Y-112004761D01*
X150900000Y-112052380D01*
X150661904Y-112052380D01*
X152090476Y-111385714D02*
X152090476Y-112052380D01*
X151852380Y-111004761D02*
X151614285Y-111719047D01*
X152233333Y-111719047D01*
%TO.C,D3*%
X164652380Y-97238095D02*
X163652380Y-97238095D01*
X163652380Y-97000000D01*
X163700000Y-96857142D01*
X163795238Y-96761904D01*
X163890476Y-96714285D01*
X164080952Y-96666666D01*
X164223809Y-96666666D01*
X164414285Y-96714285D01*
X164509523Y-96761904D01*
X164604761Y-96857142D01*
X164652380Y-97000000D01*
X164652380Y-97238095D01*
X163652380Y-96333333D02*
X163652380Y-95714285D01*
X164033333Y-96047619D01*
X164033333Y-95904761D01*
X164080952Y-95809523D01*
X164128571Y-95761904D01*
X164223809Y-95714285D01*
X164461904Y-95714285D01*
X164557142Y-95761904D01*
X164604761Y-95809523D01*
X164652380Y-95904761D01*
X164652380Y-96190476D01*
X164604761Y-96285714D01*
X164557142Y-96333333D01*
%TO.C,D2*%
X147961904Y-88952380D02*
X147961904Y-87952380D01*
X148200000Y-87952380D01*
X148342857Y-88000000D01*
X148438095Y-88095238D01*
X148485714Y-88190476D01*
X148533333Y-88380952D01*
X148533333Y-88523809D01*
X148485714Y-88714285D01*
X148438095Y-88809523D01*
X148342857Y-88904761D01*
X148200000Y-88952380D01*
X147961904Y-88952380D01*
X148914285Y-88047619D02*
X148961904Y-88000000D01*
X149057142Y-87952380D01*
X149295238Y-87952380D01*
X149390476Y-88000000D01*
X149438095Y-88047619D01*
X149485714Y-88142857D01*
X149485714Y-88238095D01*
X149438095Y-88380952D01*
X148866666Y-88952380D01*
X149485714Y-88952380D01*
%TO.C,R4*%
X133133333Y-92852380D02*
X132800000Y-92376190D01*
X132561904Y-92852380D02*
X132561904Y-91852380D01*
X132942857Y-91852380D01*
X133038095Y-91900000D01*
X133085714Y-91947619D01*
X133133333Y-92042857D01*
X133133333Y-92185714D01*
X133085714Y-92280952D01*
X133038095Y-92328571D01*
X132942857Y-92376190D01*
X132561904Y-92376190D01*
X133990476Y-92185714D02*
X133990476Y-92852380D01*
X133752380Y-91804761D02*
X133514285Y-92519047D01*
X134133333Y-92519047D01*
%TO.C,R3*%
X157972380Y-115766666D02*
X157496190Y-116100000D01*
X157972380Y-116338095D02*
X156972380Y-116338095D01*
X156972380Y-115957142D01*
X157020000Y-115861904D01*
X157067619Y-115814285D01*
X157162857Y-115766666D01*
X157305714Y-115766666D01*
X157400952Y-115814285D01*
X157448571Y-115861904D01*
X157496190Y-115957142D01*
X157496190Y-116338095D01*
X156972380Y-115433333D02*
X156972380Y-114814285D01*
X157353333Y-115147619D01*
X157353333Y-115004761D01*
X157400952Y-114909523D01*
X157448571Y-114861904D01*
X157543809Y-114814285D01*
X157781904Y-114814285D01*
X157877142Y-114861904D01*
X157924761Y-114909523D01*
X157972380Y-115004761D01*
X157972380Y-115290476D01*
X157924761Y-115385714D01*
X157877142Y-115433333D01*
%TO.C,R2*%
X166333333Y-108452380D02*
X166000000Y-107976190D01*
X165761904Y-108452380D02*
X165761904Y-107452380D01*
X166142857Y-107452380D01*
X166238095Y-107500000D01*
X166285714Y-107547619D01*
X166333333Y-107642857D01*
X166333333Y-107785714D01*
X166285714Y-107880952D01*
X166238095Y-107928571D01*
X166142857Y-107976190D01*
X165761904Y-107976190D01*
X166714285Y-107547619D02*
X166761904Y-107500000D01*
X166857142Y-107452380D01*
X167095238Y-107452380D01*
X167190476Y-107500000D01*
X167238095Y-107547619D01*
X167285714Y-107642857D01*
X167285714Y-107738095D01*
X167238095Y-107880952D01*
X166666666Y-108452380D01*
X167285714Y-108452380D01*
%TO.C,R1*%
X142832380Y-84566666D02*
X142356190Y-84900000D01*
X142832380Y-85138095D02*
X141832380Y-85138095D01*
X141832380Y-84757142D01*
X141880000Y-84661904D01*
X141927619Y-84614285D01*
X142022857Y-84566666D01*
X142165714Y-84566666D01*
X142260952Y-84614285D01*
X142308571Y-84661904D01*
X142356190Y-84757142D01*
X142356190Y-85138095D01*
X142832380Y-83614285D02*
X142832380Y-84185714D01*
X142832380Y-83900000D02*
X141832380Y-83900000D01*
X141975238Y-83995238D01*
X142070476Y-84090476D01*
X142118095Y-84185714D01*
%TD*%
M02*
