%TF.GenerationSoftware,KiCad,Pcbnew,(5.1.9-0-10_14)*%
%TF.CreationDate,2021-08-05T12:05:48+01:00*%
%TF.ProjectId,gu10-12v-lamp,67753130-2d31-4327-962d-6c616d702e6b,rev?*%
%TF.SameCoordinates,Original*%
%TF.FileFunction,Legend,Top*%
%TF.FilePolarity,Positive*%
%FSLAX46Y46*%
G04 Gerber Fmt 4.6, Leading zero omitted, Abs format (unit mm)*
G04 Created by KiCad (PCBNEW (5.1.9-0-10_14)) date 2021-08-05 12:05:48*
%MOMM*%
%LPD*%
G01*
G04 APERTURE LIST*
%ADD10C,0.120000*%
%ADD11C,0.150000*%
G04 APERTURE END LIST*
D10*
%TO.C,D13*%
X141400000Y-96900000D02*
X141400000Y-93300000D01*
X138200000Y-96900000D02*
X138200000Y-93300000D01*
X141400000Y-93300000D02*
X138200000Y-93300000D01*
%TO.C,D12*%
X141400000Y-106300000D02*
X141400000Y-102700000D01*
X138200000Y-106300000D02*
X138200000Y-102700000D01*
X141400000Y-102700000D02*
X138200000Y-102700000D01*
%TO.C,D11*%
X134200000Y-98900000D02*
X134200000Y-102500000D01*
X137400000Y-98900000D02*
X137400000Y-102500000D01*
X134200000Y-102500000D02*
X137400000Y-102500000D01*
%TO.C,D10*%
X148700000Y-106600000D02*
X152300000Y-106600000D01*
X148700000Y-103400000D02*
X152300000Y-103400000D01*
X152300000Y-106600000D02*
X152300000Y-103400000D01*
%TO.C,D9*%
X158600000Y-103375000D02*
X158600000Y-106975000D01*
X161800000Y-103375000D02*
X161800000Y-106975000D01*
X158600000Y-106975000D02*
X161800000Y-106975000D01*
%TO.C,D8*%
X151400000Y-93500000D02*
X147800000Y-93500000D01*
X151400000Y-96700000D02*
X147800000Y-96700000D01*
X147800000Y-93500000D02*
X147800000Y-96700000D01*
%TO.C,D7*%
X146700000Y-107500000D02*
X143100000Y-107500000D01*
X146700000Y-110700000D02*
X143100000Y-110700000D01*
X143100000Y-107500000D02*
X143100000Y-110700000D01*
%TO.C,D6*%
X158600000Y-94000000D02*
X158600000Y-97600000D01*
X161800000Y-94000000D02*
X161800000Y-97600000D01*
X158600000Y-97600000D02*
X161800000Y-97600000D01*
%TO.C,D5*%
X153100000Y-92500000D02*
X156700000Y-92500000D01*
X153100000Y-89300000D02*
X156700000Y-89300000D01*
X156700000Y-92500000D02*
X156700000Y-89300000D01*
%TO.C,D4*%
X156100000Y-107500000D02*
X152500000Y-107500000D01*
X156100000Y-110700000D02*
X152500000Y-110700000D01*
X152500000Y-107500000D02*
X152500000Y-110700000D01*
%TO.C,D3*%
X165800000Y-101400000D02*
X165800000Y-97800000D01*
X162600000Y-101400000D02*
X162600000Y-97800000D01*
X165800000Y-97800000D02*
X162600000Y-97800000D01*
%TO.C,D2*%
X143800000Y-92500000D02*
X147400000Y-92500000D01*
X143800000Y-89300000D02*
X147400000Y-89300000D01*
X147400000Y-92500000D02*
X147400000Y-89300000D01*
%TO.C,R4*%
X135477064Y-96910000D02*
X131122936Y-96910000D01*
X135477064Y-93490000D02*
X131122936Y-93490000D01*
%TO.C,R3*%
X156610000Y-113422936D02*
X156610000Y-117777064D01*
X153190000Y-113422936D02*
X153190000Y-117777064D01*
%TO.C,R2*%
X164322936Y-103390000D02*
X168677064Y-103390000D01*
X164322936Y-106810000D02*
X168677064Y-106810000D01*
%TO.C,R1*%
X143290000Y-86577064D02*
X143290000Y-82222936D01*
X146710000Y-86577064D02*
X146710000Y-82222936D01*
%TO.C,D13*%
D11*
X142652380Y-96714285D02*
X141652380Y-96714285D01*
X141652380Y-96476190D01*
X141700000Y-96333333D01*
X141795238Y-96238095D01*
X141890476Y-96190476D01*
X142080952Y-96142857D01*
X142223809Y-96142857D01*
X142414285Y-96190476D01*
X142509523Y-96238095D01*
X142604761Y-96333333D01*
X142652380Y-96476190D01*
X142652380Y-96714285D01*
X142652380Y-95190476D02*
X142652380Y-95761904D01*
X142652380Y-95476190D02*
X141652380Y-95476190D01*
X141795238Y-95571428D01*
X141890476Y-95666666D01*
X141938095Y-95761904D01*
X141652380Y-94857142D02*
X141652380Y-94238095D01*
X142033333Y-94571428D01*
X142033333Y-94428571D01*
X142080952Y-94333333D01*
X142128571Y-94285714D01*
X142223809Y-94238095D01*
X142461904Y-94238095D01*
X142557142Y-94285714D01*
X142604761Y-94333333D01*
X142652380Y-94428571D01*
X142652380Y-94714285D01*
X142604761Y-94809523D01*
X142557142Y-94857142D01*
%TO.C,D12*%
X142652380Y-106114285D02*
X141652380Y-106114285D01*
X141652380Y-105876190D01*
X141700000Y-105733333D01*
X141795238Y-105638095D01*
X141890476Y-105590476D01*
X142080952Y-105542857D01*
X142223809Y-105542857D01*
X142414285Y-105590476D01*
X142509523Y-105638095D01*
X142604761Y-105733333D01*
X142652380Y-105876190D01*
X142652380Y-106114285D01*
X142652380Y-104590476D02*
X142652380Y-105161904D01*
X142652380Y-104876190D02*
X141652380Y-104876190D01*
X141795238Y-104971428D01*
X141890476Y-105066666D01*
X141938095Y-105161904D01*
X141747619Y-104209523D02*
X141700000Y-104161904D01*
X141652380Y-104066666D01*
X141652380Y-103828571D01*
X141700000Y-103733333D01*
X141747619Y-103685714D01*
X141842857Y-103638095D01*
X141938095Y-103638095D01*
X142080952Y-103685714D01*
X142652380Y-104257142D01*
X142652380Y-103638095D01*
%TO.C,D11*%
X133852380Y-101514285D02*
X132852380Y-101514285D01*
X132852380Y-101276190D01*
X132900000Y-101133333D01*
X132995238Y-101038095D01*
X133090476Y-100990476D01*
X133280952Y-100942857D01*
X133423809Y-100942857D01*
X133614285Y-100990476D01*
X133709523Y-101038095D01*
X133804761Y-101133333D01*
X133852380Y-101276190D01*
X133852380Y-101514285D01*
X133852380Y-99990476D02*
X133852380Y-100561904D01*
X133852380Y-100276190D02*
X132852380Y-100276190D01*
X132995238Y-100371428D01*
X133090476Y-100466666D01*
X133138095Y-100561904D01*
X133852380Y-99038095D02*
X133852380Y-99609523D01*
X133852380Y-99323809D02*
X132852380Y-99323809D01*
X132995238Y-99419047D01*
X133090476Y-99514285D01*
X133138095Y-99609523D01*
%TO.C,D10*%
X148885714Y-107852380D02*
X148885714Y-106852380D01*
X149123809Y-106852380D01*
X149266666Y-106900000D01*
X149361904Y-106995238D01*
X149409523Y-107090476D01*
X149457142Y-107280952D01*
X149457142Y-107423809D01*
X149409523Y-107614285D01*
X149361904Y-107709523D01*
X149266666Y-107804761D01*
X149123809Y-107852380D01*
X148885714Y-107852380D01*
X150409523Y-107852380D02*
X149838095Y-107852380D01*
X150123809Y-107852380D02*
X150123809Y-106852380D01*
X150028571Y-106995238D01*
X149933333Y-107090476D01*
X149838095Y-107138095D01*
X151028571Y-106852380D02*
X151123809Y-106852380D01*
X151219047Y-106900000D01*
X151266666Y-106947619D01*
X151314285Y-107042857D01*
X151361904Y-107233333D01*
X151361904Y-107471428D01*
X151314285Y-107661904D01*
X151266666Y-107757142D01*
X151219047Y-107804761D01*
X151123809Y-107852380D01*
X151028571Y-107852380D01*
X150933333Y-107804761D01*
X150885714Y-107757142D01*
X150838095Y-107661904D01*
X150790476Y-107471428D01*
X150790476Y-107233333D01*
X150838095Y-107042857D01*
X150885714Y-106947619D01*
X150933333Y-106900000D01*
X151028571Y-106852380D01*
%TO.C,D9*%
X158252380Y-105513095D02*
X157252380Y-105513095D01*
X157252380Y-105275000D01*
X157300000Y-105132142D01*
X157395238Y-105036904D01*
X157490476Y-104989285D01*
X157680952Y-104941666D01*
X157823809Y-104941666D01*
X158014285Y-104989285D01*
X158109523Y-105036904D01*
X158204761Y-105132142D01*
X158252380Y-105275000D01*
X158252380Y-105513095D01*
X158252380Y-104465476D02*
X158252380Y-104275000D01*
X158204761Y-104179761D01*
X158157142Y-104132142D01*
X158014285Y-104036904D01*
X157823809Y-103989285D01*
X157442857Y-103989285D01*
X157347619Y-104036904D01*
X157300000Y-104084523D01*
X157252380Y-104179761D01*
X157252380Y-104370238D01*
X157300000Y-104465476D01*
X157347619Y-104513095D01*
X157442857Y-104560714D01*
X157680952Y-104560714D01*
X157776190Y-104513095D01*
X157823809Y-104465476D01*
X157871428Y-104370238D01*
X157871428Y-104179761D01*
X157823809Y-104084523D01*
X157776190Y-104036904D01*
X157680952Y-103989285D01*
%TO.C,D8*%
X149261904Y-93152380D02*
X149261904Y-92152380D01*
X149500000Y-92152380D01*
X149642857Y-92200000D01*
X149738095Y-92295238D01*
X149785714Y-92390476D01*
X149833333Y-92580952D01*
X149833333Y-92723809D01*
X149785714Y-92914285D01*
X149738095Y-93009523D01*
X149642857Y-93104761D01*
X149500000Y-93152380D01*
X149261904Y-93152380D01*
X150404761Y-92580952D02*
X150309523Y-92533333D01*
X150261904Y-92485714D01*
X150214285Y-92390476D01*
X150214285Y-92342857D01*
X150261904Y-92247619D01*
X150309523Y-92200000D01*
X150404761Y-92152380D01*
X150595238Y-92152380D01*
X150690476Y-92200000D01*
X150738095Y-92247619D01*
X150785714Y-92342857D01*
X150785714Y-92390476D01*
X150738095Y-92485714D01*
X150690476Y-92533333D01*
X150595238Y-92580952D01*
X150404761Y-92580952D01*
X150309523Y-92628571D01*
X150261904Y-92676190D01*
X150214285Y-92771428D01*
X150214285Y-92961904D01*
X150261904Y-93057142D01*
X150309523Y-93104761D01*
X150404761Y-93152380D01*
X150595238Y-93152380D01*
X150690476Y-93104761D01*
X150738095Y-93057142D01*
X150785714Y-92961904D01*
X150785714Y-92771428D01*
X150738095Y-92676190D01*
X150690476Y-92628571D01*
X150595238Y-92580952D01*
%TO.C,D7*%
X144561904Y-107152380D02*
X144561904Y-106152380D01*
X144800000Y-106152380D01*
X144942857Y-106200000D01*
X145038095Y-106295238D01*
X145085714Y-106390476D01*
X145133333Y-106580952D01*
X145133333Y-106723809D01*
X145085714Y-106914285D01*
X145038095Y-107009523D01*
X144942857Y-107104761D01*
X144800000Y-107152380D01*
X144561904Y-107152380D01*
X145466666Y-106152380D02*
X146133333Y-106152380D01*
X145704761Y-107152380D01*
%TO.C,D6*%
X158252380Y-96138095D02*
X157252380Y-96138095D01*
X157252380Y-95900000D01*
X157300000Y-95757142D01*
X157395238Y-95661904D01*
X157490476Y-95614285D01*
X157680952Y-95566666D01*
X157823809Y-95566666D01*
X158014285Y-95614285D01*
X158109523Y-95661904D01*
X158204761Y-95757142D01*
X158252380Y-95900000D01*
X158252380Y-96138095D01*
X157252380Y-94709523D02*
X157252380Y-94900000D01*
X157300000Y-94995238D01*
X157347619Y-95042857D01*
X157490476Y-95138095D01*
X157680952Y-95185714D01*
X158061904Y-95185714D01*
X158157142Y-95138095D01*
X158204761Y-95090476D01*
X158252380Y-94995238D01*
X158252380Y-94804761D01*
X158204761Y-94709523D01*
X158157142Y-94661904D01*
X158061904Y-94614285D01*
X157823809Y-94614285D01*
X157728571Y-94661904D01*
X157680952Y-94709523D01*
X157633333Y-94804761D01*
X157633333Y-94995238D01*
X157680952Y-95090476D01*
X157728571Y-95138095D01*
X157823809Y-95185714D01*
%TO.C,D5*%
X153761904Y-93752380D02*
X153761904Y-92752380D01*
X154000000Y-92752380D01*
X154142857Y-92800000D01*
X154238095Y-92895238D01*
X154285714Y-92990476D01*
X154333333Y-93180952D01*
X154333333Y-93323809D01*
X154285714Y-93514285D01*
X154238095Y-93609523D01*
X154142857Y-93704761D01*
X154000000Y-93752380D01*
X153761904Y-93752380D01*
X155238095Y-92752380D02*
X154761904Y-92752380D01*
X154714285Y-93228571D01*
X154761904Y-93180952D01*
X154857142Y-93133333D01*
X155095238Y-93133333D01*
X155190476Y-93180952D01*
X155238095Y-93228571D01*
X155285714Y-93323809D01*
X155285714Y-93561904D01*
X155238095Y-93657142D01*
X155190476Y-93704761D01*
X155095238Y-93752380D01*
X154857142Y-93752380D01*
X154761904Y-93704761D01*
X154714285Y-93657142D01*
%TO.C,D4*%
X153961904Y-107152380D02*
X153961904Y-106152380D01*
X154200000Y-106152380D01*
X154342857Y-106200000D01*
X154438095Y-106295238D01*
X154485714Y-106390476D01*
X154533333Y-106580952D01*
X154533333Y-106723809D01*
X154485714Y-106914285D01*
X154438095Y-107009523D01*
X154342857Y-107104761D01*
X154200000Y-107152380D01*
X153961904Y-107152380D01*
X155390476Y-106485714D02*
X155390476Y-107152380D01*
X155152380Y-106104761D02*
X154914285Y-106819047D01*
X155533333Y-106819047D01*
%TO.C,D3*%
X167052380Y-100738095D02*
X166052380Y-100738095D01*
X166052380Y-100500000D01*
X166100000Y-100357142D01*
X166195238Y-100261904D01*
X166290476Y-100214285D01*
X166480952Y-100166666D01*
X166623809Y-100166666D01*
X166814285Y-100214285D01*
X166909523Y-100261904D01*
X167004761Y-100357142D01*
X167052380Y-100500000D01*
X167052380Y-100738095D01*
X166052380Y-99833333D02*
X166052380Y-99214285D01*
X166433333Y-99547619D01*
X166433333Y-99404761D01*
X166480952Y-99309523D01*
X166528571Y-99261904D01*
X166623809Y-99214285D01*
X166861904Y-99214285D01*
X166957142Y-99261904D01*
X167004761Y-99309523D01*
X167052380Y-99404761D01*
X167052380Y-99690476D01*
X167004761Y-99785714D01*
X166957142Y-99833333D01*
%TO.C,D2*%
X144461904Y-93752380D02*
X144461904Y-92752380D01*
X144700000Y-92752380D01*
X144842857Y-92800000D01*
X144938095Y-92895238D01*
X144985714Y-92990476D01*
X145033333Y-93180952D01*
X145033333Y-93323809D01*
X144985714Y-93514285D01*
X144938095Y-93609523D01*
X144842857Y-93704761D01*
X144700000Y-93752380D01*
X144461904Y-93752380D01*
X145414285Y-92847619D02*
X145461904Y-92800000D01*
X145557142Y-92752380D01*
X145795238Y-92752380D01*
X145890476Y-92800000D01*
X145938095Y-92847619D01*
X145985714Y-92942857D01*
X145985714Y-93038095D01*
X145938095Y-93180952D01*
X145366666Y-93752380D01*
X145985714Y-93752380D01*
%TO.C,R4*%
X133133333Y-92852380D02*
X132800000Y-92376190D01*
X132561904Y-92852380D02*
X132561904Y-91852380D01*
X132942857Y-91852380D01*
X133038095Y-91900000D01*
X133085714Y-91947619D01*
X133133333Y-92042857D01*
X133133333Y-92185714D01*
X133085714Y-92280952D01*
X133038095Y-92328571D01*
X132942857Y-92376190D01*
X132561904Y-92376190D01*
X133990476Y-92185714D02*
X133990476Y-92852380D01*
X133752380Y-91804761D02*
X133514285Y-92519047D01*
X134133333Y-92519047D01*
%TO.C,R3*%
X157972380Y-115766666D02*
X157496190Y-116100000D01*
X157972380Y-116338095D02*
X156972380Y-116338095D01*
X156972380Y-115957142D01*
X157020000Y-115861904D01*
X157067619Y-115814285D01*
X157162857Y-115766666D01*
X157305714Y-115766666D01*
X157400952Y-115814285D01*
X157448571Y-115861904D01*
X157496190Y-115957142D01*
X157496190Y-116338095D01*
X156972380Y-115433333D02*
X156972380Y-114814285D01*
X157353333Y-115147619D01*
X157353333Y-115004761D01*
X157400952Y-114909523D01*
X157448571Y-114861904D01*
X157543809Y-114814285D01*
X157781904Y-114814285D01*
X157877142Y-114861904D01*
X157924761Y-114909523D01*
X157972380Y-115004761D01*
X157972380Y-115290476D01*
X157924761Y-115385714D01*
X157877142Y-115433333D01*
%TO.C,R2*%
X166333333Y-108452380D02*
X166000000Y-107976190D01*
X165761904Y-108452380D02*
X165761904Y-107452380D01*
X166142857Y-107452380D01*
X166238095Y-107500000D01*
X166285714Y-107547619D01*
X166333333Y-107642857D01*
X166333333Y-107785714D01*
X166285714Y-107880952D01*
X166238095Y-107928571D01*
X166142857Y-107976190D01*
X165761904Y-107976190D01*
X166714285Y-107547619D02*
X166761904Y-107500000D01*
X166857142Y-107452380D01*
X167095238Y-107452380D01*
X167190476Y-107500000D01*
X167238095Y-107547619D01*
X167285714Y-107642857D01*
X167285714Y-107738095D01*
X167238095Y-107880952D01*
X166666666Y-108452380D01*
X167285714Y-108452380D01*
%TO.C,R1*%
X142832380Y-84566666D02*
X142356190Y-84900000D01*
X142832380Y-85138095D02*
X141832380Y-85138095D01*
X141832380Y-84757142D01*
X141880000Y-84661904D01*
X141927619Y-84614285D01*
X142022857Y-84566666D01*
X142165714Y-84566666D01*
X142260952Y-84614285D01*
X142308571Y-84661904D01*
X142356190Y-84757142D01*
X142356190Y-85138095D01*
X142832380Y-83614285D02*
X142832380Y-84185714D01*
X142832380Y-83900000D02*
X141832380Y-83900000D01*
X141975238Y-83995238D01*
X142070476Y-84090476D01*
X142118095Y-84185714D01*
%TD*%
M02*
