%TF.GenerationSoftware,KiCad,Pcbnew,(5.1.9-0-10_14)*%
%TF.CreationDate,2021-08-05T12:05:48+01:00*%
%TF.ProjectId,gu10-12v-lamp,67753130-2d31-4327-962d-6c616d702e6b,rev?*%
%TF.SameCoordinates,Original*%
%TF.FileFunction,Copper,L2,Bot*%
%TF.FilePolarity,Positive*%
%FSLAX46Y46*%
G04 Gerber Fmt 4.6, Leading zero omitted, Abs format (unit mm)*
G04 Created by KiCad (PCBNEW (5.1.9-0-10_14)) date 2021-08-05 12:05:48*
%MOMM*%
%LPD*%
G01*
G04 APERTURE LIST*
%TA.AperFunction,ComponentPad*%
%ADD10C,0.800000*%
%TD*%
%TA.AperFunction,ComponentPad*%
%ADD11C,6.400000*%
%TD*%
%TA.AperFunction,SMDPad,CuDef*%
%ADD12R,1.500000X2.000000*%
%TD*%
%TA.AperFunction,ViaPad*%
%ADD13C,0.800000*%
%TD*%
%TA.AperFunction,ViaPad*%
%ADD14C,1.000000*%
%TD*%
%TA.AperFunction,Conductor*%
%ADD15C,1.500000*%
%TD*%
%TA.AperFunction,Conductor*%
%ADD16C,0.254000*%
%TD*%
%TA.AperFunction,Conductor*%
%ADD17C,0.100000*%
%TD*%
G04 APERTURE END LIST*
D10*
%TO.P,H2,1*%
%TO.N,Net-(D1-Pad3)*%
X156697056Y-98302944D03*
X155000000Y-97600000D03*
X153302944Y-98302944D03*
X152600000Y-100000000D03*
X153302944Y-101697056D03*
X155000000Y-102400000D03*
X156697056Y-101697056D03*
X157400000Y-100000000D03*
D11*
X155000000Y-100000000D03*
%TD*%
D10*
%TO.P,H1,1*%
%TO.N,Net-(D1-Pad4)*%
X146697056Y-98302944D03*
X145000000Y-97600000D03*
X143302944Y-98302944D03*
X142600000Y-100000000D03*
X143302944Y-101697056D03*
X145000000Y-102400000D03*
X146697056Y-101697056D03*
X147400000Y-100000000D03*
D11*
X145000000Y-100000000D03*
%TD*%
D12*
%TO.P,D1,4*%
%TO.N,Net-(D1-Pad4)*%
X150000000Y-94770000D03*
%TO.P,D1,3*%
%TO.N,Net-(D1-Pad3)*%
X155100000Y-94770000D03*
%TO.P,D1,2*%
%TO.N,GND*%
X155100000Y-86030000D03*
%TO.P,D1,1*%
%TO.N,+12V*%
X150000000Y-86030000D03*
%TD*%
D13*
%TO.N,GND*%
X158260000Y-88170000D03*
X159160000Y-87670000D03*
X159160000Y-86670000D03*
X158260000Y-87170000D03*
X158260000Y-86170000D03*
X160200000Y-92000000D03*
X161100000Y-90500000D03*
X158400000Y-90000000D03*
X162000000Y-91000000D03*
X162000000Y-90000000D03*
X158400000Y-92000000D03*
X158400000Y-91000000D03*
X160200000Y-90000000D03*
X161100000Y-91500000D03*
X159300000Y-91500000D03*
X160200000Y-91000000D03*
X159300000Y-90500000D03*
X138000000Y-108600000D03*
X139800000Y-108600000D03*
X138900000Y-110100000D03*
X141600000Y-110600000D03*
X138000000Y-109600000D03*
X138000000Y-110600000D03*
X141600000Y-108600000D03*
X141600000Y-109600000D03*
X139800000Y-110600000D03*
X138900000Y-109100000D03*
X140700000Y-109100000D03*
X139800000Y-109600000D03*
X140700000Y-110100000D03*
X141650000Y-92300000D03*
X139850000Y-92300000D03*
X140750000Y-90800000D03*
X141650000Y-91300000D03*
X141650000Y-90300000D03*
X139850000Y-90300000D03*
X140750000Y-91800000D03*
X138950000Y-91800000D03*
X139850000Y-91300000D03*
X138950000Y-90800000D03*
X160200000Y-110100000D03*
X161100000Y-108600000D03*
X158400000Y-108100000D03*
X158400000Y-110100000D03*
X158400000Y-109100000D03*
X160200000Y-108100000D03*
X161100000Y-109600000D03*
X159300000Y-109600000D03*
X160200000Y-109100000D03*
X159300000Y-108600000D03*
X155200000Y-105200000D03*
X155200000Y-104200000D03*
X155200000Y-106200000D03*
X156100000Y-104700000D03*
X154300000Y-104700000D03*
X156100000Y-105700000D03*
X153400000Y-105200000D03*
X153400000Y-104200000D03*
X153400000Y-106200000D03*
X154300000Y-105700000D03*
X157000000Y-105200000D03*
X157000000Y-106200000D03*
X146600000Y-93550000D03*
X146600000Y-94550000D03*
X146600000Y-95550000D03*
X145700000Y-95050000D03*
X145700000Y-94050000D03*
X144800000Y-93550000D03*
X144800000Y-94550000D03*
X144800000Y-95550000D03*
X143000000Y-94550000D03*
X143000000Y-93550000D03*
X143900000Y-94050000D03*
X143900000Y-95050000D03*
X162000000Y-92000000D03*
D14*
X150000000Y-101500000D03*
X150000000Y-100000000D03*
X150000000Y-98500000D03*
D13*
%TO.N,+12V*%
X151500000Y-119000000D03*
X148800000Y-118500000D03*
X149700000Y-117000000D03*
X151500000Y-118000000D03*
X149700000Y-118000000D03*
X147900000Y-119000000D03*
X147900000Y-117000000D03*
X150600000Y-117500000D03*
X147900000Y-118000000D03*
X151500000Y-117000000D03*
X148800000Y-117500000D03*
X150600000Y-118500000D03*
X149700000Y-119000000D03*
X131400000Y-99250000D03*
X130900000Y-98350000D03*
X130400000Y-99250000D03*
X131400000Y-101050000D03*
X131900000Y-100150000D03*
X129900000Y-100150000D03*
X129900000Y-98350000D03*
X131900000Y-101950000D03*
X129900000Y-101950000D03*
X130400000Y-101050000D03*
X131900000Y-98350000D03*
X130900000Y-100150000D03*
X130900000Y-101950000D03*
X168450000Y-100900000D03*
X168950000Y-101800000D03*
X169450000Y-100900000D03*
X168450000Y-99100000D03*
X167950000Y-100000000D03*
X169950000Y-100000000D03*
X169950000Y-101800000D03*
X167950000Y-98200000D03*
X169950000Y-98200000D03*
X169450000Y-99100000D03*
X167950000Y-101800000D03*
X168950000Y-100000000D03*
X168950000Y-98200000D03*
X151800000Y-82850000D03*
X150000000Y-82850000D03*
X150900000Y-81350000D03*
X148200000Y-80850000D03*
X151800000Y-81850000D03*
X151800000Y-80850000D03*
X148200000Y-82850000D03*
X148200000Y-81850000D03*
X150000000Y-80850000D03*
X150900000Y-82350000D03*
X149100000Y-82350000D03*
X150000000Y-81850000D03*
X149100000Y-81350000D03*
%TD*%
D15*
%TO.N,+12V*%
X150000000Y-85341039D02*
X149263150Y-84604189D01*
X150000000Y-86030000D02*
X150000000Y-85341039D01*
X150000000Y-85425506D02*
X150733650Y-84691856D01*
X150000000Y-86030000D02*
X150000000Y-85425506D01*
X150000000Y-86030000D02*
X150000000Y-82100000D01*
%TO.N,Net-(D1-Pad4)*%
X150000000Y-94770000D02*
X150000000Y-94850000D01*
X150000000Y-95500000D02*
X146700000Y-98800000D01*
X150000000Y-94770000D02*
X150000000Y-95500000D01*
%TO.N,Net-(D1-Pad3)*%
X155100000Y-94770000D02*
X155100000Y-98400000D01*
%TD*%
D16*
%TO.N,+12V*%
X152417822Y-75760294D02*
X154336027Y-76029016D01*
X156226819Y-76449290D01*
X158078243Y-77018460D01*
X159878594Y-77732926D01*
X161616489Y-78588171D01*
X163280940Y-79578790D01*
X164861426Y-80698517D01*
X166347952Y-81940275D01*
X167731122Y-83296212D01*
X169002190Y-84757756D01*
X170153120Y-86315667D01*
X171176635Y-87960094D01*
X172066265Y-89680641D01*
X172816385Y-91466431D01*
X173422252Y-93306172D01*
X173880036Y-95188234D01*
X174186843Y-97100718D01*
X174340733Y-99031532D01*
X174340733Y-100968468D01*
X174186843Y-102899282D01*
X173880036Y-104811766D01*
X173422252Y-106693828D01*
X172816385Y-108533569D01*
X172066265Y-110319359D01*
X171176635Y-112039906D01*
X170153120Y-113684333D01*
X169002190Y-115242244D01*
X167731122Y-116703788D01*
X166347952Y-118059725D01*
X164861426Y-119301483D01*
X163280940Y-120421210D01*
X161616489Y-121411829D01*
X159878594Y-122267074D01*
X158078243Y-122981540D01*
X156226819Y-123550710D01*
X154336027Y-123970984D01*
X152417822Y-124239706D01*
X150484330Y-124355177D01*
X148547776Y-124316666D01*
X146620404Y-124124418D01*
X144714398Y-123779647D01*
X142841810Y-123284534D01*
X141014478Y-122642208D01*
X139243955Y-121856731D01*
X137541436Y-120933069D01*
X135917683Y-119877061D01*
X134382964Y-118695384D01*
X132946981Y-117395509D01*
X131618812Y-115985654D01*
X130478736Y-114564344D01*
X133365000Y-114564344D01*
X133365000Y-114935656D01*
X133437439Y-115299834D01*
X133579534Y-115642882D01*
X133785825Y-115951618D01*
X134048382Y-116214175D01*
X134357118Y-116420466D01*
X134700166Y-116562561D01*
X135064344Y-116635000D01*
X135435656Y-116635000D01*
X135799834Y-116562561D01*
X136142882Y-116420466D01*
X136451618Y-116214175D01*
X136714175Y-115951618D01*
X136920466Y-115642882D01*
X137062561Y-115299834D01*
X137135000Y-114935656D01*
X137135000Y-114564344D01*
X137062561Y-114200166D01*
X136920466Y-113857118D01*
X136714175Y-113548382D01*
X136451618Y-113285825D01*
X136142882Y-113079534D01*
X135799834Y-112937439D01*
X135435656Y-112865000D01*
X135064344Y-112865000D01*
X134700166Y-112937439D01*
X134357118Y-113079534D01*
X134048382Y-113285825D01*
X133785825Y-113548382D01*
X133579534Y-113857118D01*
X133437439Y-114200166D01*
X133365000Y-114564344D01*
X130478736Y-114564344D01*
X130406855Y-114474732D01*
X129318772Y-112872297D01*
X128361443Y-111188478D01*
X127540919Y-109433923D01*
X126862389Y-107619723D01*
X126330143Y-105757349D01*
X125947545Y-103858575D01*
X125717014Y-101935405D01*
X125640008Y-100000000D01*
X125717014Y-98064595D01*
X125947545Y-96141425D01*
X126330143Y-94242651D01*
X126862389Y-92380277D01*
X126967215Y-92100000D01*
X133565000Y-92100000D01*
X133565000Y-107900000D01*
X133577201Y-108023882D01*
X133613336Y-108143004D01*
X133672017Y-108252787D01*
X133750987Y-108349013D01*
X141650987Y-116249013D01*
X141747213Y-116327983D01*
X141856996Y-116386664D01*
X141976118Y-116422799D01*
X142100000Y-116435000D01*
X157800000Y-116435000D01*
X157919963Y-116423565D01*
X158039310Y-116388180D01*
X158149460Y-116330192D01*
X158246180Y-116251828D01*
X159955024Y-114564344D01*
X162865000Y-114564344D01*
X162865000Y-114935656D01*
X162937439Y-115299834D01*
X163079534Y-115642882D01*
X163285825Y-115951618D01*
X163548382Y-116214175D01*
X163857118Y-116420466D01*
X164200166Y-116562561D01*
X164564344Y-116635000D01*
X164935656Y-116635000D01*
X165299834Y-116562561D01*
X165642882Y-116420466D01*
X165951618Y-116214175D01*
X166214175Y-115951618D01*
X166420466Y-115642882D01*
X166562561Y-115299834D01*
X166635000Y-114935656D01*
X166635000Y-114564344D01*
X166562561Y-114200166D01*
X166420466Y-113857118D01*
X166214175Y-113548382D01*
X165951618Y-113285825D01*
X165642882Y-113079534D01*
X165299834Y-112937439D01*
X164935656Y-112865000D01*
X164564344Y-112865000D01*
X164200166Y-112937439D01*
X163857118Y-113079534D01*
X163548382Y-113285825D01*
X163285825Y-113548382D01*
X163079534Y-113857118D01*
X162937439Y-114200166D01*
X162865000Y-114564344D01*
X159955024Y-114564344D01*
X166246180Y-108351828D01*
X166327983Y-108252787D01*
X166386664Y-108143004D01*
X166422799Y-108023882D01*
X166435000Y-107900000D01*
X166435000Y-92100000D01*
X166422799Y-91976118D01*
X166386664Y-91856996D01*
X166327983Y-91747213D01*
X166249013Y-91650987D01*
X159662370Y-85064344D01*
X162865000Y-85064344D01*
X162865000Y-85435656D01*
X162937439Y-85799834D01*
X163079534Y-86142882D01*
X163285825Y-86451618D01*
X163548382Y-86714175D01*
X163857118Y-86920466D01*
X164200166Y-87062561D01*
X164564344Y-87135000D01*
X164935656Y-87135000D01*
X165299834Y-87062561D01*
X165642882Y-86920466D01*
X165951618Y-86714175D01*
X166214175Y-86451618D01*
X166420466Y-86142882D01*
X166562561Y-85799834D01*
X166635000Y-85435656D01*
X166635000Y-85064344D01*
X166562561Y-84700166D01*
X166420466Y-84357118D01*
X166214175Y-84048382D01*
X165951618Y-83785825D01*
X165642882Y-83579534D01*
X165299834Y-83437439D01*
X164935656Y-83365000D01*
X164564344Y-83365000D01*
X164200166Y-83437439D01*
X163857118Y-83579534D01*
X163548382Y-83785825D01*
X163285825Y-84048382D01*
X163079534Y-84357118D01*
X162937439Y-84700166D01*
X162865000Y-85064344D01*
X159662370Y-85064344D01*
X158349013Y-83750987D01*
X158252787Y-83672017D01*
X158143004Y-83613336D01*
X158023882Y-83577201D01*
X157900000Y-83565000D01*
X151975000Y-83565000D01*
X151847660Y-83577899D01*
X151728741Y-83614696D01*
X151619285Y-83673985D01*
X151523500Y-83753489D01*
X151445065Y-83850152D01*
X151386996Y-83960259D01*
X151351523Y-84079579D01*
X151340010Y-84203528D01*
X151343315Y-84798389D01*
X151339502Y-84785820D01*
X151280537Y-84675506D01*
X151201185Y-84578815D01*
X151104494Y-84499463D01*
X150994180Y-84440498D01*
X150874482Y-84404188D01*
X150750000Y-84391928D01*
X149250000Y-84391928D01*
X149125518Y-84404188D01*
X149005820Y-84440498D01*
X148895506Y-84499463D01*
X148798815Y-84578815D01*
X148719463Y-84675506D01*
X148663236Y-84780698D01*
X148659990Y-84196472D01*
X148647799Y-84076118D01*
X148611664Y-83956996D01*
X148552983Y-83847213D01*
X148474013Y-83750987D01*
X148377787Y-83672017D01*
X148268004Y-83613336D01*
X148148882Y-83577201D01*
X148025000Y-83565000D01*
X142100000Y-83565000D01*
X141976118Y-83577201D01*
X141856996Y-83613336D01*
X141747213Y-83672017D01*
X141650987Y-83750987D01*
X133750987Y-91650987D01*
X133672017Y-91747213D01*
X133613336Y-91856996D01*
X133577201Y-91976118D01*
X133565000Y-92100000D01*
X126967215Y-92100000D01*
X127540919Y-90566077D01*
X128361443Y-88811522D01*
X129318772Y-87127703D01*
X130406855Y-85525268D01*
X130776576Y-85064344D01*
X133365000Y-85064344D01*
X133365000Y-85435656D01*
X133437439Y-85799834D01*
X133579534Y-86142882D01*
X133785825Y-86451618D01*
X134048382Y-86714175D01*
X134357118Y-86920466D01*
X134700166Y-87062561D01*
X135064344Y-87135000D01*
X135435656Y-87135000D01*
X135799834Y-87062561D01*
X136142882Y-86920466D01*
X136451618Y-86714175D01*
X136714175Y-86451618D01*
X136920466Y-86142882D01*
X137062561Y-85799834D01*
X137135000Y-85435656D01*
X137135000Y-85064344D01*
X137062561Y-84700166D01*
X136920466Y-84357118D01*
X136714175Y-84048382D01*
X136451618Y-83785825D01*
X136142882Y-83579534D01*
X135799834Y-83437439D01*
X135435656Y-83365000D01*
X135064344Y-83365000D01*
X134700166Y-83437439D01*
X134357118Y-83579534D01*
X134048382Y-83785825D01*
X133785825Y-84048382D01*
X133579534Y-84357118D01*
X133437439Y-84700166D01*
X133365000Y-85064344D01*
X130776576Y-85064344D01*
X131618812Y-84014346D01*
X132946981Y-82604491D01*
X134382964Y-81304616D01*
X135917683Y-80122939D01*
X137541436Y-79066931D01*
X139243955Y-78143269D01*
X141014478Y-77357792D01*
X142841810Y-76715466D01*
X144714398Y-76220353D01*
X146620404Y-75875582D01*
X148547776Y-75683334D01*
X150484330Y-75644823D01*
X152417822Y-75760294D01*
%TA.AperFunction,Conductor*%
D17*
G36*
X152417822Y-75760294D02*
G01*
X154336027Y-76029016D01*
X156226819Y-76449290D01*
X158078243Y-77018460D01*
X159878594Y-77732926D01*
X161616489Y-78588171D01*
X163280940Y-79578790D01*
X164861426Y-80698517D01*
X166347952Y-81940275D01*
X167731122Y-83296212D01*
X169002190Y-84757756D01*
X170153120Y-86315667D01*
X171176635Y-87960094D01*
X172066265Y-89680641D01*
X172816385Y-91466431D01*
X173422252Y-93306172D01*
X173880036Y-95188234D01*
X174186843Y-97100718D01*
X174340733Y-99031532D01*
X174340733Y-100968468D01*
X174186843Y-102899282D01*
X173880036Y-104811766D01*
X173422252Y-106693828D01*
X172816385Y-108533569D01*
X172066265Y-110319359D01*
X171176635Y-112039906D01*
X170153120Y-113684333D01*
X169002190Y-115242244D01*
X167731122Y-116703788D01*
X166347952Y-118059725D01*
X164861426Y-119301483D01*
X163280940Y-120421210D01*
X161616489Y-121411829D01*
X159878594Y-122267074D01*
X158078243Y-122981540D01*
X156226819Y-123550710D01*
X154336027Y-123970984D01*
X152417822Y-124239706D01*
X150484330Y-124355177D01*
X148547776Y-124316666D01*
X146620404Y-124124418D01*
X144714398Y-123779647D01*
X142841810Y-123284534D01*
X141014478Y-122642208D01*
X139243955Y-121856731D01*
X137541436Y-120933069D01*
X135917683Y-119877061D01*
X134382964Y-118695384D01*
X132946981Y-117395509D01*
X131618812Y-115985654D01*
X130478736Y-114564344D01*
X133365000Y-114564344D01*
X133365000Y-114935656D01*
X133437439Y-115299834D01*
X133579534Y-115642882D01*
X133785825Y-115951618D01*
X134048382Y-116214175D01*
X134357118Y-116420466D01*
X134700166Y-116562561D01*
X135064344Y-116635000D01*
X135435656Y-116635000D01*
X135799834Y-116562561D01*
X136142882Y-116420466D01*
X136451618Y-116214175D01*
X136714175Y-115951618D01*
X136920466Y-115642882D01*
X137062561Y-115299834D01*
X137135000Y-114935656D01*
X137135000Y-114564344D01*
X137062561Y-114200166D01*
X136920466Y-113857118D01*
X136714175Y-113548382D01*
X136451618Y-113285825D01*
X136142882Y-113079534D01*
X135799834Y-112937439D01*
X135435656Y-112865000D01*
X135064344Y-112865000D01*
X134700166Y-112937439D01*
X134357118Y-113079534D01*
X134048382Y-113285825D01*
X133785825Y-113548382D01*
X133579534Y-113857118D01*
X133437439Y-114200166D01*
X133365000Y-114564344D01*
X130478736Y-114564344D01*
X130406855Y-114474732D01*
X129318772Y-112872297D01*
X128361443Y-111188478D01*
X127540919Y-109433923D01*
X126862389Y-107619723D01*
X126330143Y-105757349D01*
X125947545Y-103858575D01*
X125717014Y-101935405D01*
X125640008Y-100000000D01*
X125717014Y-98064595D01*
X125947545Y-96141425D01*
X126330143Y-94242651D01*
X126862389Y-92380277D01*
X126967215Y-92100000D01*
X133565000Y-92100000D01*
X133565000Y-107900000D01*
X133577201Y-108023882D01*
X133613336Y-108143004D01*
X133672017Y-108252787D01*
X133750987Y-108349013D01*
X141650987Y-116249013D01*
X141747213Y-116327983D01*
X141856996Y-116386664D01*
X141976118Y-116422799D01*
X142100000Y-116435000D01*
X157800000Y-116435000D01*
X157919963Y-116423565D01*
X158039310Y-116388180D01*
X158149460Y-116330192D01*
X158246180Y-116251828D01*
X159955024Y-114564344D01*
X162865000Y-114564344D01*
X162865000Y-114935656D01*
X162937439Y-115299834D01*
X163079534Y-115642882D01*
X163285825Y-115951618D01*
X163548382Y-116214175D01*
X163857118Y-116420466D01*
X164200166Y-116562561D01*
X164564344Y-116635000D01*
X164935656Y-116635000D01*
X165299834Y-116562561D01*
X165642882Y-116420466D01*
X165951618Y-116214175D01*
X166214175Y-115951618D01*
X166420466Y-115642882D01*
X166562561Y-115299834D01*
X166635000Y-114935656D01*
X166635000Y-114564344D01*
X166562561Y-114200166D01*
X166420466Y-113857118D01*
X166214175Y-113548382D01*
X165951618Y-113285825D01*
X165642882Y-113079534D01*
X165299834Y-112937439D01*
X164935656Y-112865000D01*
X164564344Y-112865000D01*
X164200166Y-112937439D01*
X163857118Y-113079534D01*
X163548382Y-113285825D01*
X163285825Y-113548382D01*
X163079534Y-113857118D01*
X162937439Y-114200166D01*
X162865000Y-114564344D01*
X159955024Y-114564344D01*
X166246180Y-108351828D01*
X166327983Y-108252787D01*
X166386664Y-108143004D01*
X166422799Y-108023882D01*
X166435000Y-107900000D01*
X166435000Y-92100000D01*
X166422799Y-91976118D01*
X166386664Y-91856996D01*
X166327983Y-91747213D01*
X166249013Y-91650987D01*
X159662370Y-85064344D01*
X162865000Y-85064344D01*
X162865000Y-85435656D01*
X162937439Y-85799834D01*
X163079534Y-86142882D01*
X163285825Y-86451618D01*
X163548382Y-86714175D01*
X163857118Y-86920466D01*
X164200166Y-87062561D01*
X164564344Y-87135000D01*
X164935656Y-87135000D01*
X165299834Y-87062561D01*
X165642882Y-86920466D01*
X165951618Y-86714175D01*
X166214175Y-86451618D01*
X166420466Y-86142882D01*
X166562561Y-85799834D01*
X166635000Y-85435656D01*
X166635000Y-85064344D01*
X166562561Y-84700166D01*
X166420466Y-84357118D01*
X166214175Y-84048382D01*
X165951618Y-83785825D01*
X165642882Y-83579534D01*
X165299834Y-83437439D01*
X164935656Y-83365000D01*
X164564344Y-83365000D01*
X164200166Y-83437439D01*
X163857118Y-83579534D01*
X163548382Y-83785825D01*
X163285825Y-84048382D01*
X163079534Y-84357118D01*
X162937439Y-84700166D01*
X162865000Y-85064344D01*
X159662370Y-85064344D01*
X158349013Y-83750987D01*
X158252787Y-83672017D01*
X158143004Y-83613336D01*
X158023882Y-83577201D01*
X157900000Y-83565000D01*
X151975000Y-83565000D01*
X151847660Y-83577899D01*
X151728741Y-83614696D01*
X151619285Y-83673985D01*
X151523500Y-83753489D01*
X151445065Y-83850152D01*
X151386996Y-83960259D01*
X151351523Y-84079579D01*
X151340010Y-84203528D01*
X151343315Y-84798389D01*
X151339502Y-84785820D01*
X151280537Y-84675506D01*
X151201185Y-84578815D01*
X151104494Y-84499463D01*
X150994180Y-84440498D01*
X150874482Y-84404188D01*
X150750000Y-84391928D01*
X149250000Y-84391928D01*
X149125518Y-84404188D01*
X149005820Y-84440498D01*
X148895506Y-84499463D01*
X148798815Y-84578815D01*
X148719463Y-84675506D01*
X148663236Y-84780698D01*
X148659990Y-84196472D01*
X148647799Y-84076118D01*
X148611664Y-83956996D01*
X148552983Y-83847213D01*
X148474013Y-83750987D01*
X148377787Y-83672017D01*
X148268004Y-83613336D01*
X148148882Y-83577201D01*
X148025000Y-83565000D01*
X142100000Y-83565000D01*
X141976118Y-83577201D01*
X141856996Y-83613336D01*
X141747213Y-83672017D01*
X141650987Y-83750987D01*
X133750987Y-91650987D01*
X133672017Y-91747213D01*
X133613336Y-91856996D01*
X133577201Y-91976118D01*
X133565000Y-92100000D01*
X126967215Y-92100000D01*
X127540919Y-90566077D01*
X128361443Y-88811522D01*
X129318772Y-87127703D01*
X130406855Y-85525268D01*
X130776576Y-85064344D01*
X133365000Y-85064344D01*
X133365000Y-85435656D01*
X133437439Y-85799834D01*
X133579534Y-86142882D01*
X133785825Y-86451618D01*
X134048382Y-86714175D01*
X134357118Y-86920466D01*
X134700166Y-87062561D01*
X135064344Y-87135000D01*
X135435656Y-87135000D01*
X135799834Y-87062561D01*
X136142882Y-86920466D01*
X136451618Y-86714175D01*
X136714175Y-86451618D01*
X136920466Y-86142882D01*
X137062561Y-85799834D01*
X137135000Y-85435656D01*
X137135000Y-85064344D01*
X137062561Y-84700166D01*
X136920466Y-84357118D01*
X136714175Y-84048382D01*
X136451618Y-83785825D01*
X136142882Y-83579534D01*
X135799834Y-83437439D01*
X135435656Y-83365000D01*
X135064344Y-83365000D01*
X134700166Y-83437439D01*
X134357118Y-83579534D01*
X134048382Y-83785825D01*
X133785825Y-84048382D01*
X133579534Y-84357118D01*
X133437439Y-84700166D01*
X133365000Y-85064344D01*
X130776576Y-85064344D01*
X131618812Y-84014346D01*
X132946981Y-82604491D01*
X134382964Y-81304616D01*
X135917683Y-80122939D01*
X137541436Y-79066931D01*
X139243955Y-78143269D01*
X141014478Y-77357792D01*
X142841810Y-76715466D01*
X144714398Y-76220353D01*
X146620404Y-75875582D01*
X148547776Y-75683334D01*
X150484330Y-75644823D01*
X152417822Y-75760294D01*
G37*
%TD.AperFunction*%
%TD*%
D16*
%TO.N,GND*%
X147898726Y-84330916D02*
X147898190Y-84332682D01*
X147871450Y-84604189D01*
X147898190Y-84875696D01*
X147901819Y-84887658D01*
X147923002Y-88700706D01*
X147925580Y-88725468D01*
X147932939Y-88749252D01*
X147944797Y-88771143D01*
X147960698Y-88790300D01*
X147980030Y-88805987D01*
X148002052Y-88817601D01*
X148025916Y-88824695D01*
X148050000Y-88827000D01*
X152000000Y-88827000D01*
X152024776Y-88824560D01*
X152048601Y-88817333D01*
X152070557Y-88805597D01*
X152089803Y-88789803D01*
X152105597Y-88770557D01*
X152117333Y-88748601D01*
X152124560Y-88724776D01*
X152126998Y-88699294D01*
X152117725Y-87030000D01*
X153711928Y-87030000D01*
X153724188Y-87154482D01*
X153760498Y-87274180D01*
X153819463Y-87384494D01*
X153898815Y-87481185D01*
X153995506Y-87560537D01*
X154105820Y-87619502D01*
X154225518Y-87655812D01*
X154350000Y-87668072D01*
X154814250Y-87665000D01*
X154973000Y-87506250D01*
X154973000Y-86157000D01*
X155227000Y-86157000D01*
X155227000Y-87506250D01*
X155385750Y-87665000D01*
X155850000Y-87668072D01*
X155974482Y-87655812D01*
X156094180Y-87619502D01*
X156204494Y-87560537D01*
X156301185Y-87481185D01*
X156380537Y-87384494D01*
X156439502Y-87274180D01*
X156475812Y-87154482D01*
X156488072Y-87030000D01*
X156485000Y-86315750D01*
X156326250Y-86157000D01*
X155227000Y-86157000D01*
X154973000Y-86157000D01*
X153873750Y-86157000D01*
X153715000Y-86315750D01*
X153711928Y-87030000D01*
X152117725Y-87030000D01*
X152106613Y-85030000D01*
X153711928Y-85030000D01*
X153715000Y-85744250D01*
X153873750Y-85903000D01*
X154973000Y-85903000D01*
X154973000Y-84553750D01*
X155227000Y-84553750D01*
X155227000Y-85903000D01*
X156326250Y-85903000D01*
X156485000Y-85744250D01*
X156488072Y-85030000D01*
X156475812Y-84905518D01*
X156439502Y-84785820D01*
X156380537Y-84675506D01*
X156301185Y-84578815D01*
X156204494Y-84499463D01*
X156094180Y-84440498D01*
X155974482Y-84404188D01*
X155850000Y-84391928D01*
X155385750Y-84395000D01*
X155227000Y-84553750D01*
X154973000Y-84553750D01*
X154814250Y-84395000D01*
X154350000Y-84391928D01*
X154225518Y-84404188D01*
X154105820Y-84440498D01*
X153995506Y-84499463D01*
X153898815Y-84578815D01*
X153819463Y-84675506D01*
X153760498Y-84785820D01*
X153724188Y-84905518D01*
X153711928Y-85030000D01*
X152106613Y-85030000D01*
X152105835Y-84890005D01*
X152125350Y-84691856D01*
X152103502Y-84470016D01*
X152102707Y-84327000D01*
X157847394Y-84327000D01*
X165673000Y-92152606D01*
X165673000Y-107846926D01*
X157747862Y-115673000D01*
X142152606Y-115673000D01*
X134327000Y-107847394D01*
X134327000Y-99622285D01*
X141165000Y-99622285D01*
X141165000Y-100377715D01*
X141312377Y-101118628D01*
X141601467Y-101816554D01*
X142021161Y-102444670D01*
X142555330Y-102978839D01*
X143183446Y-103398533D01*
X143881372Y-103687623D01*
X144622285Y-103835000D01*
X145377715Y-103835000D01*
X146118628Y-103687623D01*
X146816554Y-103398533D01*
X147444670Y-102978839D01*
X147978839Y-102444670D01*
X148398533Y-101816554D01*
X148687623Y-101118628D01*
X148835000Y-100377715D01*
X148835000Y-99622285D01*
X151165000Y-99622285D01*
X151165000Y-100377715D01*
X151312377Y-101118628D01*
X151601467Y-101816554D01*
X152021161Y-102444670D01*
X152555330Y-102978839D01*
X153183446Y-103398533D01*
X153881372Y-103687623D01*
X154622285Y-103835000D01*
X155377715Y-103835000D01*
X156118628Y-103687623D01*
X156816554Y-103398533D01*
X157444670Y-102978839D01*
X157978839Y-102444670D01*
X158398533Y-101816554D01*
X158687623Y-101118628D01*
X158835000Y-100377715D01*
X158835000Y-99622285D01*
X158687623Y-98881372D01*
X158398533Y-98183446D01*
X157978839Y-97555330D01*
X157444670Y-97021161D01*
X156816554Y-96601467D01*
X156485000Y-96464133D01*
X156485000Y-95801192D01*
X156488072Y-95770000D01*
X156488072Y-93770000D01*
X156475812Y-93645518D01*
X156439502Y-93525820D01*
X156380537Y-93415506D01*
X156301185Y-93318815D01*
X156204494Y-93239463D01*
X156094180Y-93180498D01*
X155974482Y-93144188D01*
X155850000Y-93131928D01*
X154350000Y-93131928D01*
X154225518Y-93144188D01*
X154105820Y-93180498D01*
X153995506Y-93239463D01*
X153898815Y-93318815D01*
X153819463Y-93415506D01*
X153760498Y-93525820D01*
X153724188Y-93645518D01*
X153711928Y-93770000D01*
X153711928Y-95770000D01*
X153715000Y-95801195D01*
X153715000Y-96381290D01*
X153183446Y-96601467D01*
X152555330Y-97021161D01*
X152021161Y-97555330D01*
X151601467Y-98183446D01*
X151312377Y-98881372D01*
X151165000Y-99622285D01*
X148835000Y-99622285D01*
X148687623Y-98881372D01*
X148655314Y-98803371D01*
X150931236Y-96527450D01*
X150984081Y-96484081D01*
X151046461Y-96408072D01*
X151157157Y-96273188D01*
X151172269Y-96244916D01*
X151201185Y-96221185D01*
X151280537Y-96124494D01*
X151339502Y-96014180D01*
X151375812Y-95894482D01*
X151388072Y-95770000D01*
X151388072Y-95536837D01*
X151391700Y-95500000D01*
X151388072Y-95463163D01*
X151388072Y-93770000D01*
X151375812Y-93645518D01*
X151339502Y-93525820D01*
X151280537Y-93415506D01*
X151201185Y-93318815D01*
X151104494Y-93239463D01*
X150994180Y-93180498D01*
X150874482Y-93144188D01*
X150750000Y-93131928D01*
X149250000Y-93131928D01*
X149125518Y-93144188D01*
X149005820Y-93180498D01*
X148895506Y-93239463D01*
X148798815Y-93318815D01*
X148719463Y-93415506D01*
X148660498Y-93525820D01*
X148624188Y-93645518D01*
X148611928Y-93770000D01*
X148611928Y-94929386D01*
X146890463Y-96650852D01*
X146816554Y-96601467D01*
X146118628Y-96312377D01*
X145377715Y-96165000D01*
X144622285Y-96165000D01*
X143881372Y-96312377D01*
X143183446Y-96601467D01*
X142555330Y-97021161D01*
X142021161Y-97555330D01*
X141601467Y-98183446D01*
X141312377Y-98881372D01*
X141165000Y-99622285D01*
X134327000Y-99622285D01*
X134327000Y-92152606D01*
X142152606Y-84327000D01*
X147898704Y-84327000D01*
X147898726Y-84330916D01*
%TA.AperFunction,Conductor*%
D17*
G36*
X147898726Y-84330916D02*
G01*
X147898190Y-84332682D01*
X147871450Y-84604189D01*
X147898190Y-84875696D01*
X147901819Y-84887658D01*
X147923002Y-88700706D01*
X147925580Y-88725468D01*
X147932939Y-88749252D01*
X147944797Y-88771143D01*
X147960698Y-88790300D01*
X147980030Y-88805987D01*
X148002052Y-88817601D01*
X148025916Y-88824695D01*
X148050000Y-88827000D01*
X152000000Y-88827000D01*
X152024776Y-88824560D01*
X152048601Y-88817333D01*
X152070557Y-88805597D01*
X152089803Y-88789803D01*
X152105597Y-88770557D01*
X152117333Y-88748601D01*
X152124560Y-88724776D01*
X152126998Y-88699294D01*
X152117725Y-87030000D01*
X153711928Y-87030000D01*
X153724188Y-87154482D01*
X153760498Y-87274180D01*
X153819463Y-87384494D01*
X153898815Y-87481185D01*
X153995506Y-87560537D01*
X154105820Y-87619502D01*
X154225518Y-87655812D01*
X154350000Y-87668072D01*
X154814250Y-87665000D01*
X154973000Y-87506250D01*
X154973000Y-86157000D01*
X155227000Y-86157000D01*
X155227000Y-87506250D01*
X155385750Y-87665000D01*
X155850000Y-87668072D01*
X155974482Y-87655812D01*
X156094180Y-87619502D01*
X156204494Y-87560537D01*
X156301185Y-87481185D01*
X156380537Y-87384494D01*
X156439502Y-87274180D01*
X156475812Y-87154482D01*
X156488072Y-87030000D01*
X156485000Y-86315750D01*
X156326250Y-86157000D01*
X155227000Y-86157000D01*
X154973000Y-86157000D01*
X153873750Y-86157000D01*
X153715000Y-86315750D01*
X153711928Y-87030000D01*
X152117725Y-87030000D01*
X152106613Y-85030000D01*
X153711928Y-85030000D01*
X153715000Y-85744250D01*
X153873750Y-85903000D01*
X154973000Y-85903000D01*
X154973000Y-84553750D01*
X155227000Y-84553750D01*
X155227000Y-85903000D01*
X156326250Y-85903000D01*
X156485000Y-85744250D01*
X156488072Y-85030000D01*
X156475812Y-84905518D01*
X156439502Y-84785820D01*
X156380537Y-84675506D01*
X156301185Y-84578815D01*
X156204494Y-84499463D01*
X156094180Y-84440498D01*
X155974482Y-84404188D01*
X155850000Y-84391928D01*
X155385750Y-84395000D01*
X155227000Y-84553750D01*
X154973000Y-84553750D01*
X154814250Y-84395000D01*
X154350000Y-84391928D01*
X154225518Y-84404188D01*
X154105820Y-84440498D01*
X153995506Y-84499463D01*
X153898815Y-84578815D01*
X153819463Y-84675506D01*
X153760498Y-84785820D01*
X153724188Y-84905518D01*
X153711928Y-85030000D01*
X152106613Y-85030000D01*
X152105835Y-84890005D01*
X152125350Y-84691856D01*
X152103502Y-84470016D01*
X152102707Y-84327000D01*
X157847394Y-84327000D01*
X165673000Y-92152606D01*
X165673000Y-107846926D01*
X157747862Y-115673000D01*
X142152606Y-115673000D01*
X134327000Y-107847394D01*
X134327000Y-99622285D01*
X141165000Y-99622285D01*
X141165000Y-100377715D01*
X141312377Y-101118628D01*
X141601467Y-101816554D01*
X142021161Y-102444670D01*
X142555330Y-102978839D01*
X143183446Y-103398533D01*
X143881372Y-103687623D01*
X144622285Y-103835000D01*
X145377715Y-103835000D01*
X146118628Y-103687623D01*
X146816554Y-103398533D01*
X147444670Y-102978839D01*
X147978839Y-102444670D01*
X148398533Y-101816554D01*
X148687623Y-101118628D01*
X148835000Y-100377715D01*
X148835000Y-99622285D01*
X151165000Y-99622285D01*
X151165000Y-100377715D01*
X151312377Y-101118628D01*
X151601467Y-101816554D01*
X152021161Y-102444670D01*
X152555330Y-102978839D01*
X153183446Y-103398533D01*
X153881372Y-103687623D01*
X154622285Y-103835000D01*
X155377715Y-103835000D01*
X156118628Y-103687623D01*
X156816554Y-103398533D01*
X157444670Y-102978839D01*
X157978839Y-102444670D01*
X158398533Y-101816554D01*
X158687623Y-101118628D01*
X158835000Y-100377715D01*
X158835000Y-99622285D01*
X158687623Y-98881372D01*
X158398533Y-98183446D01*
X157978839Y-97555330D01*
X157444670Y-97021161D01*
X156816554Y-96601467D01*
X156485000Y-96464133D01*
X156485000Y-95801192D01*
X156488072Y-95770000D01*
X156488072Y-93770000D01*
X156475812Y-93645518D01*
X156439502Y-93525820D01*
X156380537Y-93415506D01*
X156301185Y-93318815D01*
X156204494Y-93239463D01*
X156094180Y-93180498D01*
X155974482Y-93144188D01*
X155850000Y-93131928D01*
X154350000Y-93131928D01*
X154225518Y-93144188D01*
X154105820Y-93180498D01*
X153995506Y-93239463D01*
X153898815Y-93318815D01*
X153819463Y-93415506D01*
X153760498Y-93525820D01*
X153724188Y-93645518D01*
X153711928Y-93770000D01*
X153711928Y-95770000D01*
X153715000Y-95801195D01*
X153715000Y-96381290D01*
X153183446Y-96601467D01*
X152555330Y-97021161D01*
X152021161Y-97555330D01*
X151601467Y-98183446D01*
X151312377Y-98881372D01*
X151165000Y-99622285D01*
X148835000Y-99622285D01*
X148687623Y-98881372D01*
X148655314Y-98803371D01*
X150931236Y-96527450D01*
X150984081Y-96484081D01*
X151046461Y-96408072D01*
X151157157Y-96273188D01*
X151172269Y-96244916D01*
X151201185Y-96221185D01*
X151280537Y-96124494D01*
X151339502Y-96014180D01*
X151375812Y-95894482D01*
X151388072Y-95770000D01*
X151388072Y-95536837D01*
X151391700Y-95500000D01*
X151388072Y-95463163D01*
X151388072Y-93770000D01*
X151375812Y-93645518D01*
X151339502Y-93525820D01*
X151280537Y-93415506D01*
X151201185Y-93318815D01*
X151104494Y-93239463D01*
X150994180Y-93180498D01*
X150874482Y-93144188D01*
X150750000Y-93131928D01*
X149250000Y-93131928D01*
X149125518Y-93144188D01*
X149005820Y-93180498D01*
X148895506Y-93239463D01*
X148798815Y-93318815D01*
X148719463Y-93415506D01*
X148660498Y-93525820D01*
X148624188Y-93645518D01*
X148611928Y-93770000D01*
X148611928Y-94929386D01*
X146890463Y-96650852D01*
X146816554Y-96601467D01*
X146118628Y-96312377D01*
X145377715Y-96165000D01*
X144622285Y-96165000D01*
X143881372Y-96312377D01*
X143183446Y-96601467D01*
X142555330Y-97021161D01*
X142021161Y-97555330D01*
X141601467Y-98183446D01*
X141312377Y-98881372D01*
X141165000Y-99622285D01*
X134327000Y-99622285D01*
X134327000Y-92152606D01*
X142152606Y-84327000D01*
X147898704Y-84327000D01*
X147898726Y-84330916D01*
G37*
%TD.AperFunction*%
%TD*%
M02*
