%TF.GenerationSoftware,KiCad,Pcbnew,(5.1.9-0-10_14)*%
%TF.CreationDate,2021-08-05T12:05:48+01:00*%
%TF.ProjectId,gu10-12v-lamp,67753130-2d31-4327-962d-6c616d702e6b,rev?*%
%TF.SameCoordinates,Original*%
%TF.FileFunction,Soldermask,Top*%
%TF.FilePolarity,Negative*%
%FSLAX46Y46*%
G04 Gerber Fmt 4.6, Leading zero omitted, Abs format (unit mm)*
G04 Created by KiCad (PCBNEW (5.1.9-0-10_14)) date 2021-08-05 12:05:48*
%MOMM*%
%LPD*%
G01*
G04 APERTURE LIST*
%ADD10R,2.200000X1.250000*%
%ADD11R,2.200000X2.200000*%
%ADD12R,1.250000X2.200000*%
%ADD13C,2.500000*%
%ADD14C,0.800000*%
%ADD15C,6.400000*%
G04 APERTURE END LIST*
D10*
%TO.C,D13*%
X139800000Y-96875000D03*
D11*
X139800000Y-94600000D03*
%TD*%
D10*
%TO.C,D12*%
X139800000Y-106275000D03*
D11*
X139800000Y-104000000D03*
%TD*%
D10*
%TO.C,D11*%
X135800000Y-98925000D03*
D11*
X135800000Y-101200000D03*
%TD*%
D12*
%TO.C,D10*%
X148725000Y-105000000D03*
D11*
X151000000Y-105000000D03*
%TD*%
D10*
%TO.C,D9*%
X160200000Y-103400000D03*
D11*
X160200000Y-105675000D03*
%TD*%
D12*
%TO.C,D8*%
X151375000Y-95100000D03*
D11*
X149100000Y-95100000D03*
%TD*%
D12*
%TO.C,D7*%
X146675000Y-109100000D03*
D11*
X144400000Y-109100000D03*
%TD*%
D10*
%TO.C,D6*%
X160200000Y-94025000D03*
D11*
X160200000Y-96300000D03*
%TD*%
D12*
%TO.C,D5*%
X153125000Y-90900000D03*
D11*
X155400000Y-90900000D03*
%TD*%
D12*
%TO.C,D4*%
X156075000Y-109100000D03*
D11*
X153800000Y-109100000D03*
%TD*%
D10*
%TO.C,D3*%
X164200000Y-101375000D03*
D11*
X164200000Y-99100000D03*
%TD*%
D12*
%TO.C,D2*%
X143825000Y-90900000D03*
D11*
X146100000Y-90900000D03*
%TD*%
D13*
%TO.C,H6*%
X135250000Y-85250000D03*
%TD*%
%TO.C,H5*%
X164750000Y-85250000D03*
%TD*%
%TO.C,H4*%
X135250000Y-114750000D03*
%TD*%
%TO.C,H3*%
X164750000Y-114750000D03*
%TD*%
D14*
%TO.C,H2*%
X156697056Y-98302944D03*
X155000000Y-97600000D03*
X153302944Y-98302944D03*
X152600000Y-100000000D03*
X153302944Y-101697056D03*
X155000000Y-102400000D03*
X156697056Y-101697056D03*
X157400000Y-100000000D03*
D15*
X155000000Y-100000000D03*
%TD*%
D14*
%TO.C,H1*%
X146697056Y-98302944D03*
X145000000Y-97600000D03*
X143302944Y-98302944D03*
X142600000Y-100000000D03*
X143302944Y-101697056D03*
X145000000Y-102400000D03*
X146697056Y-101697056D03*
X147400000Y-100000000D03*
D15*
X145000000Y-100000000D03*
%TD*%
%TO.C,R4*%
G36*
G01*
X130950000Y-93774999D02*
X130950000Y-96625001D01*
G75*
G02*
X130700001Y-96875000I-249999J0D01*
G01*
X129974999Y-96875000D01*
G75*
G02*
X129725000Y-96625001I0J249999D01*
G01*
X129725000Y-93774999D01*
G75*
G02*
X129974999Y-93525000I249999J0D01*
G01*
X130700001Y-93525000D01*
G75*
G02*
X130950000Y-93774999I0J-249999D01*
G01*
G37*
G36*
G01*
X136875000Y-93774999D02*
X136875000Y-96625001D01*
G75*
G02*
X136625001Y-96875000I-249999J0D01*
G01*
X135899999Y-96875000D01*
G75*
G02*
X135650000Y-96625001I0J249999D01*
G01*
X135650000Y-93774999D01*
G75*
G02*
X135899999Y-93525000I249999J0D01*
G01*
X136625001Y-93525000D01*
G75*
G02*
X136875000Y-93774999I0J-249999D01*
G01*
G37*
%TD*%
%TO.C,R3*%
G36*
G01*
X153474999Y-117950000D02*
X156325001Y-117950000D01*
G75*
G02*
X156575000Y-118199999I0J-249999D01*
G01*
X156575000Y-118925001D01*
G75*
G02*
X156325001Y-119175000I-249999J0D01*
G01*
X153474999Y-119175000D01*
G75*
G02*
X153225000Y-118925001I0J249999D01*
G01*
X153225000Y-118199999D01*
G75*
G02*
X153474999Y-117950000I249999J0D01*
G01*
G37*
G36*
G01*
X153474999Y-112025000D02*
X156325001Y-112025000D01*
G75*
G02*
X156575000Y-112274999I0J-249999D01*
G01*
X156575000Y-113000001D01*
G75*
G02*
X156325001Y-113250000I-249999J0D01*
G01*
X153474999Y-113250000D01*
G75*
G02*
X153225000Y-113000001I0J249999D01*
G01*
X153225000Y-112274999D01*
G75*
G02*
X153474999Y-112025000I249999J0D01*
G01*
G37*
%TD*%
%TO.C,R2*%
G36*
G01*
X168850000Y-106525001D02*
X168850000Y-103674999D01*
G75*
G02*
X169099999Y-103425000I249999J0D01*
G01*
X169825001Y-103425000D01*
G75*
G02*
X170075000Y-103674999I0J-249999D01*
G01*
X170075000Y-106525001D01*
G75*
G02*
X169825001Y-106775000I-249999J0D01*
G01*
X169099999Y-106775000D01*
G75*
G02*
X168850000Y-106525001I0J249999D01*
G01*
G37*
G36*
G01*
X162925000Y-106525001D02*
X162925000Y-103674999D01*
G75*
G02*
X163174999Y-103425000I249999J0D01*
G01*
X163900001Y-103425000D01*
G75*
G02*
X164150000Y-103674999I0J-249999D01*
G01*
X164150000Y-106525001D01*
G75*
G02*
X163900001Y-106775000I-249999J0D01*
G01*
X163174999Y-106775000D01*
G75*
G02*
X162925000Y-106525001I0J249999D01*
G01*
G37*
%TD*%
%TO.C,R1*%
G36*
G01*
X146425001Y-82050000D02*
X143574999Y-82050000D01*
G75*
G02*
X143325000Y-81800001I0J249999D01*
G01*
X143325000Y-81074999D01*
G75*
G02*
X143574999Y-80825000I249999J0D01*
G01*
X146425001Y-80825000D01*
G75*
G02*
X146675000Y-81074999I0J-249999D01*
G01*
X146675000Y-81800001D01*
G75*
G02*
X146425001Y-82050000I-249999J0D01*
G01*
G37*
G36*
G01*
X146425001Y-87975000D02*
X143574999Y-87975000D01*
G75*
G02*
X143325000Y-87725001I0J249999D01*
G01*
X143325000Y-86999999D01*
G75*
G02*
X143574999Y-86750000I249999J0D01*
G01*
X146425001Y-86750000D01*
G75*
G02*
X146675000Y-86999999I0J-249999D01*
G01*
X146675000Y-87725001D01*
G75*
G02*
X146425001Y-87975000I-249999J0D01*
G01*
G37*
%TD*%
M02*
